<?xml version="1.0" encoding="UTF-8" standalone="no"?>
<!DOCTYPE svg PUBLIC "-//W3C//DTD SVG 1.1//EN"
 "http://www.w3.org/Graphics/SVG/1.1/DTD/svg11.dtd">
<!-- Generated by graphviz version 2.43.0 (0)
 -->
<!-- Title: robowflex::PipelinePlanner Pages: 1 -->
<svg width="737pt" height="210pt"
 viewBox="0.00 0.00 737.00 210.00" xmlns="http://www.w3.org/2000/svg" xmlns:xlink="http://www.w3.org/1999/xlink">
<g id="graph0" class="graph" transform="scale(1 1) rotate(0) translate(4 206)">
<title>robowflex::PipelinePlanner</title>
<!-- Node1 -->
<g id="node1" class="node">
<title>Node1</title>
<g id="a_node1"><a xlink:title="A motion planner that uses the MoveIt! planning pipeline to load a planner plugin.">
<polygon fill="#bfbfbf" stroke="black" points="143,-55 143,-74 289,-74 289,-55 143,-55"/>
<text text-anchor="middle" x="216" y="-62" font-family="Roboto" font-size="10.00">robowflex::PipelinePlanner</text>
</a>
</g>
</g>
<!-- Node3 -->
<g id="node3" class="node">
<title>Node3</title>
<g id="a_node3"><a xlink:href="classrobowflex_1_1OMPL_1_1OMPLPipelinePlanner.html" target="_top" xlink:title="A robowflex::PipelinePlanner that uses the MoveIt! default OMPL planning pipeline.">
<polygon fill="none" stroke="black" points="325,-98.5 325,-128.5 496,-128.5 496,-98.5 325,-98.5"/>
<text text-anchor="start" x="333" y="-116.5" font-family="Roboto" font-size="10.00">robowflex::OMPL::OMPLPipeline</text>
<text text-anchor="middle" x="410.5" y="-105.5" font-family="Roboto" font-size="10.00">Planner</text>
</a>
</g>
</g>
<!-- Node1&#45;&gt;Node3 -->
<g id="edge2" class="edge">
<title>Node1&#45;&gt;Node3</title>
<path fill="none" stroke="midnightblue" d="M264.54,-76.6C290.5,-83.21 322.86,-91.45 350.43,-98.46"/>
<polygon fill="midnightblue" stroke="midnightblue" points="265.13,-73.14 254.57,-74.06 263.4,-79.92 265.13,-73.14"/>
</g>
<!-- Node8 -->
<g id="node8" class="node">
<title>Node8</title>
<g id="a_node8"><a xlink:href="classrobowflex_1_1opt_1_1CHOMPPipelinePlanner.html" target="_top" xlink:title="A robowflex::PipelinePlanner that uses the MoveIt! CHOMP planning pipeline.">
<polygon fill="none" stroke="black" points="326.5,-49.5 326.5,-79.5 494.5,-79.5 494.5,-49.5 326.5,-49.5"/>
<text text-anchor="start" x="334.5" y="-67.5" font-family="Roboto" font-size="10.00">robowflex::opt::CHOMPPipeline</text>
<text text-anchor="middle" x="410.5" y="-56.5" font-family="Roboto" font-size="10.00">Planner</text>
</a>
</g>
</g>
<!-- Node1&#45;&gt;Node8 -->
<g id="edge7" class="edge">
<title>Node1&#45;&gt;Node8</title>
<path fill="none" stroke="midnightblue" d="M299.51,-64.5C308.34,-64.5 317.34,-64.5 326.18,-64.5"/>
<polygon fill="midnightblue" stroke="midnightblue" points="299.23,-61 289.23,-64.5 299.23,-68 299.23,-61"/>
</g>
<!-- Node9 -->
<g id="node9" class="node">
<title>Node9</title>
<g id="a_node9"><a xlink:href="classrobowflex_1_1opt_1_1TrajOptPipelinePlanner.html" target="_top" xlink:title="A robowflex::PipelinePlanner that uses the MoveIt! TrajOpt planning pipeline.">
<polygon fill="none" stroke="black" points="327.5,-0.5 327.5,-30.5 493.5,-30.5 493.5,-0.5 327.5,-0.5"/>
<text text-anchor="start" x="335.5" y="-18.5" font-family="Roboto" font-size="10.00">robowflex::opt::TrajOptPipeline</text>
<text text-anchor="middle" x="410.5" y="-7.5" font-family="Roboto" font-size="10.00">Planner</text>
</a>
</g>
</g>
<!-- Node1&#45;&gt;Node9 -->
<g id="edge8" class="edge">
<title>Node1&#45;&gt;Node9</title>
<path fill="none" stroke="midnightblue" d="M264.54,-52.4C290.5,-45.79 322.86,-37.55 350.43,-30.54"/>
<polygon fill="midnightblue" stroke="midnightblue" points="263.4,-49.08 254.57,-54.94 265.13,-55.86 263.4,-49.08"/>
</g>
<!-- Node2 -->
<g id="node2" class="node">
<title>Node2</title>
<g id="a_node2"><a xlink:href="classrobowflex_1_1Planner.html" target="_top" xlink:title="An abstract interface to a motion planning algorithm.">
<polygon fill="none" stroke="black" points="0,-55 0,-74 107,-74 107,-55 0,-55"/>
<text text-anchor="middle" x="53.5" y="-62" font-family="Roboto" font-size="10.00">robowflex::Planner</text>
</a>
</g>
</g>
<!-- Node2&#45;&gt;Node1 -->
<g id="edge1" class="edge">
<title>Node2&#45;&gt;Node1</title>
<path fill="none" stroke="midnightblue" d="M117.15,-64.5C125.56,-64.5 134.24,-64.5 142.8,-64.5"/>
<polygon fill="midnightblue" stroke="midnightblue" points="117.05,-61 107.05,-64.5 117.05,-68 117.05,-61"/>
</g>
<!-- Node4 -->
<g id="node4" class="node">
<title>Node4</title>
<g id="a_node4"><a xlink:href="classrobowflex_1_1OMPL_1_1Cob4OMPLPipelinePlanner.html" target="_top" xlink:title="Convenience class for the default motion planning pipeline for Cob4.">
<polygon fill="none" stroke="black" points="532.5,-171.5 532.5,-201.5 728.5,-201.5 728.5,-171.5 532.5,-171.5"/>
<text text-anchor="start" x="540.5" y="-189.5" font-family="Roboto" font-size="10.00">robowflex::OMPL::Cob4OMPLPipeline</text>
<text text-anchor="middle" x="630.5" y="-178.5" font-family="Roboto" font-size="10.00">Planner</text>
</a>
</g>
</g>
<!-- Node3&#45;&gt;Node4 -->
<g id="edge3" class="edge">
<title>Node3&#45;&gt;Node4</title>
<path fill="none" stroke="midnightblue" d="M454.16,-132.61C476.96,-142.37 505.69,-153.96 532,-162.5 541.87,-165.7 552.41,-168.71 562.79,-171.45"/>
<polygon fill="midnightblue" stroke="midnightblue" points="455.35,-129.31 444.78,-128.55 452.57,-135.74 455.35,-129.31"/>
</g>
<!-- Node5 -->
<g id="node5" class="node">
<title>Node5</title>
<g id="a_node5"><a xlink:href="classrobowflex_1_1OMPL_1_1FetchOMPLPipelinePlanner.html" target="_top" xlink:title="Convenience class for the default motion planning pipeline for Fetch.">
<polygon fill="none" stroke="black" points="532,-122.5 532,-152.5 729,-152.5 729,-122.5 532,-122.5"/>
<text text-anchor="start" x="540" y="-140.5" font-family="Roboto" font-size="10.00">robowflex::OMPL::FetchOMPLPipeline</text>
<text text-anchor="middle" x="630.5" y="-129.5" font-family="Roboto" font-size="10.00">Planner</text>
</a>
</g>
</g>
<!-- Node3&#45;&gt;Node5 -->
<g id="edge4" class="edge">
<title>Node3&#45;&gt;Node5</title>
<path fill="none" stroke="midnightblue" d="M506.07,-123.91C514.63,-124.85 523.31,-125.81 531.89,-126.75"/>
<polygon fill="midnightblue" stroke="midnightblue" points="506.42,-120.43 496.1,-122.81 505.65,-127.39 506.42,-120.43"/>
</g>
<!-- Node6 -->
<g id="node6" class="node">
<title>Node6</title>
<g id="a_node6"><a xlink:href="classrobowflex_1_1OMPL_1_1R2OMPLPipelinePlanner.html" target="_top" xlink:title="Convenience class for the default motion planning pipeline for R2 (R2C6 full).">
<polygon fill="none" stroke="black" points="538.5,-73.5 538.5,-103.5 722.5,-103.5 722.5,-73.5 538.5,-73.5"/>
<text text-anchor="start" x="546.5" y="-91.5" font-family="Roboto" font-size="10.00">robowflex::OMPL::R2OMPLPipeline</text>
<text text-anchor="middle" x="630.5" y="-80.5" font-family="Roboto" font-size="10.00">Planner</text>
</a>
</g>
</g>
<!-- Node3&#45;&gt;Node6 -->
<g id="edge5" class="edge">
<title>Node3&#45;&gt;Node6</title>
<path fill="none" stroke="midnightblue" d="M506.27,-102.63C516.95,-101.41 527.82,-100.16 538.45,-98.94"/>
<polygon fill="midnightblue" stroke="midnightblue" points="505.63,-99.18 496.1,-103.8 506.43,-106.14 505.63,-99.18"/>
</g>
<!-- Node7 -->
<g id="node7" class="node">
<title>Node7</title>
<g id="a_node7"><a xlink:href="classrobowflex_1_1OMPL_1_1UR5OMPLPipelinePlanner.html" target="_top" xlink:title="Convenience class for the default motion planning pipeline for UR5.">
<polygon fill="none" stroke="black" points="535,-24.5 535,-54.5 726,-54.5 726,-24.5 535,-24.5"/>
<text text-anchor="start" x="543" y="-42.5" font-family="Roboto" font-size="10.00">robowflex::OMPL::UR5OMPLPipeline</text>
<text text-anchor="middle" x="630.5" y="-31.5" font-family="Roboto" font-size="10.00">Planner</text>
</a>
</g>
</g>
<!-- Node3&#45;&gt;Node7 -->
<g id="edge6" class="edge">
<title>Node3&#45;&gt;Node7</title>
<path fill="none" stroke="midnightblue" d="M483.35,-94.9C487.69,-93.22 491.94,-91.42 496,-89.5 513.61,-81.17 514.29,-72.6 532,-64.5 540.34,-60.68 549.36,-57.38 558.44,-54.54"/>
<polygon fill="midnightblue" stroke="midnightblue" points="481.96,-91.68 473.75,-98.38 484.34,-98.26 481.96,-91.68"/>
</g>
</g>
</svg>
