<?xml version="1.0" encoding="UTF-8" standalone="no"?>
<!DOCTYPE svg PUBLIC "-//W3C//DTD SVG 1.1//EN"
 "http://www.w3.org/Graphics/SVG/1.1/DTD/svg11.dtd">
<!-- Generated by graphviz version 2.40.1 (20161225.0304)
 -->
<!-- Title: robowflex::PipelinePlanner Pages: 1 -->
<svg width="669pt" height="137pt"
 viewBox="0.00 0.00 669.00 137.00" xmlns="http://www.w3.org/2000/svg" xmlns:xlink="http://www.w3.org/1999/xlink">
<g id="graph0" class="graph" transform="scale(1 1) rotate(0) translate(4 133)">
<title>robowflex::PipelinePlanner</title>
<!-- Node0 -->
<g id="node1" class="node">
<title>Node0</title>
<polygon fill="#bfbfbf" stroke="#000000" points="131,-55 131,-74 259,-74 259,-55 131,-55"/>
<text text-anchor="middle" x="195" y="-62" font-family="Roboto" font-size="10.00" fill="#000000">robowflex::PipelinePlanner</text>
</g>
<!-- Node2 -->
<g id="node3" class="node">
<title>Node2</title>
<g id="a_node3"><a xlink:href="classrobowflex_1_1OMPL_1_1OMPLPipelinePlanner.html" target="_top" xlink:title="A robowflex::PipelinePlanner that uses the MoveIt! default OMPL planning pipeline. ">
<polygon fill="none" stroke="#000000" points="295,-49.5 295,-79.5 448,-79.5 448,-49.5 295,-49.5"/>
<text text-anchor="start" x="303" y="-67.5" font-family="Roboto" font-size="10.00" fill="#000000">robowflex::OMPL::OMPLPipeline</text>
<text text-anchor="middle" x="371.5" y="-56.5" font-family="Roboto" font-size="10.00" fill="#000000">Planner</text>
</a>
</g>
</g>
<!-- Node0&#45;&gt;Node2 -->
<g id="edge2" class="edge">
<title>Node0&#45;&gt;Node2</title>
<path fill="none" stroke="#191970" d="M269.3479,-64.5C277.7383,-64.5 286.3006,-64.5 294.7213,-64.5"/>
<polygon fill="#191970" stroke="#191970" points="269.2199,-61.0001 259.2198,-64.5 269.2198,-68.0001 269.2199,-61.0001"/>
</g>
<!-- Node1 -->
<g id="node2" class="node">
<title>Node1</title>
<g id="a_node2"><a xlink:href="classrobowflex_1_1Planner.html" target="_top" xlink:title="An abstract interface to a motion planning algorithm. ">
<polygon fill="none" stroke="#000000" points="0,-55 0,-74 95,-74 95,-55 0,-55"/>
<text text-anchor="middle" x="47.5" y="-62" font-family="Roboto" font-size="10.00" fill="#000000">robowflex::Planner</text>
</a>
</g>
</g>
<!-- Node1&#45;&gt;Node0 -->
<g id="edge1" class="edge">
<title>Node1&#45;&gt;Node0</title>
<path fill="none" stroke="#191970" d="M105.4407,-64.5C113.8229,-64.5 122.491,-64.5 130.9839,-64.5"/>
<polygon fill="#191970" stroke="#191970" points="105.3891,-61.0001 95.389,-64.5 105.389,-68.0001 105.3891,-61.0001"/>
</g>
<!-- Node3 -->
<g id="node4" class="node">
<title>Node3</title>
<g id="a_node4"><a xlink:href="classrobowflex_1_1OMPL_1_1FetchOMPLPipelinePlanner.html" target="_top" xlink:title="Convenience class for the default motion planning pipeline for Fetch. ">
<polygon fill="none" stroke="#000000" points="484,-98.5 484,-128.5 661,-128.5 661,-98.5 484,-98.5"/>
<text text-anchor="start" x="492" y="-116.5" font-family="Roboto" font-size="10.00" fill="#000000">robowflex::OMPL::FetchOMPLPipeline</text>
<text text-anchor="middle" x="572.5" y="-105.5" font-family="Roboto" font-size="10.00" fill="#000000">Planner</text>
</a>
</g>
</g>
<!-- Node2&#45;&gt;Node3 -->
<g id="edge3" class="edge">
<title>Node2&#45;&gt;Node3</title>
<path fill="none" stroke="#191970" d="M442.8913,-81.9038C465.1264,-87.3243 489.442,-93.252 510.944,-98.4938"/>
<polygon fill="#191970" stroke="#191970" points="443.7171,-78.5027 433.1726,-79.5346 442.0591,-85.3036 443.7171,-78.5027"/>
</g>
<!-- Node4 -->
<g id="node5" class="node">
<title>Node4</title>
<g id="a_node5"><a xlink:href="classrobowflex_1_1OMPL_1_1R2OMPLPipelinePlanner.html" target="_top" xlink:title="Convenience class for the default motion planning pipeline for R2 (R2C6 full). ">
<polygon fill="none" stroke="#000000" points="490.5,-49.5 490.5,-79.5 654.5,-79.5 654.5,-49.5 490.5,-49.5"/>
<text text-anchor="start" x="498.5" y="-67.5" font-family="Roboto" font-size="10.00" fill="#000000">robowflex::OMPL::R2OMPLPipeline</text>
<text text-anchor="middle" x="572.5" y="-56.5" font-family="Roboto" font-size="10.00" fill="#000000">Planner</text>
</a>
</g>
</g>
<!-- Node2&#45;&gt;Node4 -->
<g id="edge4" class="edge">
<title>Node2&#45;&gt;Node4</title>
<path fill="none" stroke="#191970" d="M458.2361,-64.5C468.9315,-64.5 479.8389,-64.5 490.4614,-64.5"/>
<polygon fill="#191970" stroke="#191970" points="458.0629,-61.0001 448.0629,-64.5 458.0628,-68.0001 458.0629,-61.0001"/>
</g>
<!-- Node5 -->
<g id="node6" class="node">
<title>Node5</title>
<g id="a_node6"><a xlink:href="classrobowflex_1_1OMPL_1_1UR5OMPLPipelinePlanner.html" target="_top" xlink:title="Convenience class for the default motion planning pipeline for UR5. ">
<polygon fill="none" stroke="#000000" points="487.5,-.5 487.5,-30.5 657.5,-30.5 657.5,-.5 487.5,-.5"/>
<text text-anchor="start" x="495.5" y="-18.5" font-family="Roboto" font-size="10.00" fill="#000000">robowflex::OMPL::UR5OMPLPipeline</text>
<text text-anchor="middle" x="572.5" y="-7.5" font-family="Roboto" font-size="10.00" fill="#000000">Planner</text>
</a>
</g>
</g>
<!-- Node2&#45;&gt;Node5 -->
<g id="edge5" class="edge">
<title>Node2&#45;&gt;Node5</title>
<path fill="none" stroke="#191970" d="M442.8913,-47.0962C465.1264,-41.6757 489.442,-35.748 510.944,-30.5062"/>
<polygon fill="#191970" stroke="#191970" points="442.0591,-43.6964 433.1726,-49.4654 443.7171,-50.4973 442.0591,-43.6964"/>
</g>
</g>
</svg>
