<?xml version="1.0" encoding="UTF-8" standalone="no"?>
<!DOCTYPE svg PUBLIC "-//W3C//DTD SVG 1.1//EN"
 "http://www.w3.org/Graphics/SVG/1.1/DTD/svg11.dtd">
<!-- Generated by graphviz version 2.40.1 (20161225.0304)
 -->
<!-- Title: robowflex::OMPL::UR5OMPLPipelinePlanner Pages: 1 -->
<svg width="178pt" height="218pt"
 viewBox="0.00 0.00 178.00 218.00" xmlns="http://www.w3.org/2000/svg" xmlns:xlink="http://www.w3.org/1999/xlink">
<g id="graph0" class="graph" transform="scale(1 1) rotate(0) translate(4 214)">
<title>robowflex::OMPL::UR5OMPLPipelinePlanner</title>
<!-- Node0 -->
<g id="node1" class="node">
<title>Node0</title>
<polygon fill="#bfbfbf" stroke="#000000" points="0,-.5 0,-30.5 170,-30.5 170,-.5 0,-.5"/>
<text text-anchor="start" x="8" y="-18.5" font-family="Roboto" font-size="10.00" fill="#000000">robowflex::OMPL::UR5OMPLPipeline</text>
<text text-anchor="middle" x="85" y="-7.5" font-family="Roboto" font-size="10.00" fill="#000000">Planner</text>
</g>
<!-- Node1 -->
<g id="node2" class="node">
<title>Node1</title>
<g id="a_node2"><a xlink:href="classrobowflex_1_1OMPL_1_1OMPLPipelinePlanner.html" target="_top" xlink:title="A robowflex::PipelinePlanner that uses the MoveIt! default OMPL planning pipeline. ">
<polygon fill="none" stroke="#000000" points="8.5,-67.5 8.5,-97.5 161.5,-97.5 161.5,-67.5 8.5,-67.5"/>
<text text-anchor="start" x="16.5" y="-85.5" font-family="Roboto" font-size="10.00" fill="#000000">robowflex::OMPL::OMPLPipeline</text>
<text text-anchor="middle" x="85" y="-74.5" font-family="Roboto" font-size="10.00" fill="#000000">Planner</text>
</a>
</g>
</g>
<!-- Node1&#45;&gt;Node0 -->
<g id="edge1" class="edge">
<title>Node1&#45;&gt;Node0</title>
<path fill="none" stroke="#191970" d="M85,-57.0249C85,-48.128 85,-38.4287 85,-30.6432"/>
<polygon fill="#191970" stroke="#191970" points="81.5001,-57.2966 85,-67.2967 88.5001,-57.2967 81.5001,-57.2966"/>
</g>
<!-- Node2 -->
<g id="node3" class="node">
<title>Node2</title>
<g id="a_node3"><a xlink:href="classrobowflex_1_1PipelinePlanner.html" target="_top" xlink:title="A motion planner that uses the MoveIt! planning pipeline to load a planner plugin. ">
<polygon fill="none" stroke="#000000" points="21,-134.5 21,-153.5 149,-153.5 149,-134.5 21,-134.5"/>
<text text-anchor="middle" x="85" y="-141.5" font-family="Roboto" font-size="10.00" fill="#000000">robowflex::PipelinePlanner</text>
</a>
</g>
</g>
<!-- Node2&#45;&gt;Node1 -->
<g id="edge2" class="edge">
<title>Node2&#45;&gt;Node1</title>
<path fill="none" stroke="#191970" d="M85,-124.3693C85,-115.681 85,-105.6241 85,-97.5446"/>
<polygon fill="#191970" stroke="#191970" points="81.5001,-124.3906 85,-134.3906 88.5001,-124.3907 81.5001,-124.3906"/>
</g>
<!-- Node3 -->
<g id="node4" class="node">
<title>Node3</title>
<g id="a_node4"><a xlink:href="classrobowflex_1_1Planner.html" target="_top" xlink:title="An abstract interface to a motion planning algorithm. ">
<polygon fill="none" stroke="#000000" points="37.5,-190.5 37.5,-209.5 132.5,-209.5 132.5,-190.5 37.5,-190.5"/>
<text text-anchor="middle" x="85" y="-197.5" font-family="Roboto" font-size="10.00" fill="#000000">robowflex::Planner</text>
</a>
</g>
</g>
<!-- Node3&#45;&gt;Node2 -->
<g id="edge3" class="edge">
<title>Node3&#45;&gt;Node2</title>
<path fill="none" stroke="#191970" d="M85,-180.1575C85,-171.155 85,-160.9199 85,-153.6427"/>
<polygon fill="#191970" stroke="#191970" points="81.5001,-180.2455 85,-190.2455 88.5001,-180.2456 81.5001,-180.2455"/>
</g>
</g>
</svg>
