<?xml version="1.0" encoding="UTF-8" standalone="no"?>
<!DOCTYPE svg PUBLIC "-//W3C//DTD SVG 1.1//EN"
 "http://www.w3.org/Graphics/SVG/1.1/DTD/svg11.dtd">
<!-- Generated by graphviz version 2.40.1 (20161225.0304)
 -->
<!-- Title: robowflex::Planner Pages: 1 -->
<svg width="699pt" height="181pt"
 viewBox="0.00 0.00 699.00 181.00" xmlns="http://www.w3.org/2000/svg" xmlns:xlink="http://www.w3.org/1999/xlink">
<g id="graph0" class="graph" transform="scale(1 1) rotate(0) translate(4 177)">
<title>robowflex::Planner</title>
<!-- Node0 -->
<g id="node1" class="node">
<title>Node0</title>
<polygon fill="#bfbfbf" stroke="#000000" points="0,-77 0,-96 95,-96 95,-77 0,-77"/>
<text text-anchor="middle" x="47.5" y="-84" font-family="Roboto" font-size="10.00" fill="#000000">robowflex::Planner</text>
</g>
<!-- Node1 -->
<g id="node2" class="node">
<title>Node1</title>
<g id="a_node2"><a xlink:href="classrobowflex_1_1hypercube_1_1OMPLChainPlanner.html" target="_top" xlink:title="A light wrapper over tesseract&#39;s ChainOMPLPlanner. ">
<polygon fill="none" stroke="#000000" points="156.5,-142.5 156.5,-172.5 263.5,-172.5 263.5,-142.5 156.5,-142.5"/>
<text text-anchor="start" x="164.5" y="-160.5" font-family="Roboto" font-size="10.00" fill="#000000">robowflex::hypercube</text>
<text text-anchor="middle" x="210" y="-149.5" font-family="Roboto" font-size="10.00" fill="#000000">::OMPLChainPlanner</text>
</a>
</g>
</g>
<!-- Node0&#45;&gt;Node1 -->
<g id="edge1" class="edge">
<title>Node0&#45;&gt;Node1</title>
<path fill="none" stroke="#191970" d="M70.9369,-101.5177C87.2979,-111.5401 109.9005,-124.4845 131,-133.5 139.0406,-136.9356 147.7349,-140.0967 156.3147,-142.9189"/>
<polygon fill="#191970" stroke="#191970" points="72.4227,-98.3199 62.0836,-96.0061 68.7232,-104.2624 72.4227,-98.3199"/>
</g>
<!-- Node2 -->
<g id="node3" class="node">
<title>Node2</title>
<g id="a_node3"><a xlink:href="classrobowflex_1_1OMPL_1_1OMPLInterfacePlanner.html" target="_top" xlink:title="A planner that directly uses MoveIt!&#39;s OMPL planning interface. ">
<polygon fill="none" stroke="#000000" points="131,-93.5 131,-123.5 289,-123.5 289,-93.5 131,-93.5"/>
<text text-anchor="start" x="139" y="-111.5" font-family="Roboto" font-size="10.00" fill="#000000">robowflex::OMPL::OMPLInterface</text>
<text text-anchor="middle" x="210" y="-100.5" font-family="Roboto" font-size="10.00" fill="#000000">Planner</text>
</a>
</g>
</g>
<!-- Node0&#45;&gt;Node2 -->
<g id="edge2" class="edge">
<title>Node0&#45;&gt;Node2</title>
<path fill="none" stroke="#191970" d="M105.5386,-94.3575C113.7284,-95.4663 122.2618,-96.6216 130.7657,-97.7729"/>
<polygon fill="#191970" stroke="#191970" points="105.7556,-90.8551 95.3765,-92.9817 104.8165,-97.7918 105.7556,-90.8551"/>
</g>
<!-- Node3 -->
<g id="node4" class="node">
<title>Node3</title>
<g id="a_node4"><a xlink:href="classrobowflex_1_1PipelinePlanner.html" target="_top" xlink:title="A motion planner that uses the MoveIt! planning pipeline to load a planner plugin. ">
<polygon fill="none" stroke="#000000" points="146,-55 146,-74 274,-74 274,-55 146,-55"/>
<text text-anchor="middle" x="210" y="-62" font-family="Roboto" font-size="10.00" fill="#000000">robowflex::PipelinePlanner</text>
</a>
</g>
</g>
<!-- Node0&#45;&gt;Node3 -->
<g id="edge3" class="edge">
<title>Node0&#45;&gt;Node3</title>
<path fill="none" stroke="#191970" d="M105.6326,-78.6297C118.6894,-76.8621 132.615,-74.9767 145.8996,-73.1782"/>
<polygon fill="#191970" stroke="#191970" points="104.8165,-75.2082 95.3765,-80.0183 105.7556,-82.1449 104.8165,-75.2082"/>
</g>
<!-- Node8 -->
<g id="node9" class="node">
<title>Node8</title>
<g id="a_node9"><a xlink:href="classrobowflex_1_1PoolPlanner.html" target="_top" xlink:title="A thread pool of planners P to service requests in a multi&#45;threaded environment simultaneously. ">
<polygon fill="none" stroke="#000000" points="153.5,-17 153.5,-36 266.5,-36 266.5,-17 153.5,-17"/>
<text text-anchor="middle" x="210" y="-24" font-family="Roboto" font-size="10.00" fill="#000000">robowflex::PoolPlanner</text>
</a>
</g>
</g>
<!-- Node0&#45;&gt;Node8 -->
<g id="edge8" class="edge">
<title>Node0&#45;&gt;Node8</title>
<path fill="none" stroke="#191970" d="M73.1506,-72.0679C89.3483,-63.4215 110.9354,-52.7385 131,-45.5 141.0847,-41.8618 152.1442,-38.7093 162.711,-36.0746"/>
<polygon fill="#191970" stroke="#191970" points="71.4051,-69.0329 64.2887,-76.882 74.7466,-75.1839 71.4051,-69.0329"/>
</g>
<!-- Node4 -->
<g id="node5" class="node">
<title>Node4</title>
<g id="a_node5"><a xlink:href="classrobowflex_1_1OMPL_1_1OMPLPipelinePlanner.html" target="_top" xlink:title="A robowflex::PipelinePlanner that uses the MoveIt! default OMPL planning pipeline. ">
<polygon fill="none" stroke="#000000" points="325,-49.5 325,-79.5 478,-79.5 478,-49.5 325,-49.5"/>
<text text-anchor="start" x="333" y="-67.5" font-family="Roboto" font-size="10.00" fill="#000000">robowflex::OMPL::OMPLPipeline</text>
<text text-anchor="middle" x="401.5" y="-56.5" font-family="Roboto" font-size="10.00" fill="#000000">Planner</text>
</a>
</g>
</g>
<!-- Node3&#45;&gt;Node4 -->
<g id="edge4" class="edge">
<title>Node3&#45;&gt;Node4</title>
<path fill="none" stroke="#191970" d="M284.1245,-64.5C297.4967,-64.5 311.4626,-64.5 324.9035,-64.5"/>
<polygon fill="#191970" stroke="#191970" points="284.033,-61.0001 274.033,-64.5 284.0329,-68.0001 284.033,-61.0001"/>
</g>
<!-- Node5 -->
<g id="node6" class="node">
<title>Node5</title>
<g id="a_node6"><a xlink:href="classrobowflex_1_1OMPL_1_1FetchOMPLPipelinePlanner.html" target="_top" xlink:title="Convenience class for the default motion planning pipeline for Fetch. ">
<polygon fill="none" stroke="#000000" points="514,-98.5 514,-128.5 691,-128.5 691,-98.5 514,-98.5"/>
<text text-anchor="start" x="522" y="-116.5" font-family="Roboto" font-size="10.00" fill="#000000">robowflex::OMPL::FetchOMPLPipeline</text>
<text text-anchor="middle" x="602.5" y="-105.5" font-family="Roboto" font-size="10.00" fill="#000000">Planner</text>
</a>
</g>
</g>
<!-- Node4&#45;&gt;Node5 -->
<g id="edge5" class="edge">
<title>Node4&#45;&gt;Node5</title>
<path fill="none" stroke="#191970" d="M472.8913,-81.9038C495.1264,-87.3243 519.442,-93.252 540.944,-98.4938"/>
<polygon fill="#191970" stroke="#191970" points="473.7171,-78.5027 463.1726,-79.5346 472.0591,-85.3036 473.7171,-78.5027"/>
</g>
<!-- Node6 -->
<g id="node7" class="node">
<title>Node6</title>
<g id="a_node7"><a xlink:href="classrobowflex_1_1OMPL_1_1R2OMPLPipelinePlanner.html" target="_top" xlink:title="Convenience class for the default motion planning pipeline for R2 (R2C6 full). ">
<polygon fill="none" stroke="#000000" points="520.5,-49.5 520.5,-79.5 684.5,-79.5 684.5,-49.5 520.5,-49.5"/>
<text text-anchor="start" x="528.5" y="-67.5" font-family="Roboto" font-size="10.00" fill="#000000">robowflex::OMPL::R2OMPLPipeline</text>
<text text-anchor="middle" x="602.5" y="-56.5" font-family="Roboto" font-size="10.00" fill="#000000">Planner</text>
</a>
</g>
</g>
<!-- Node4&#45;&gt;Node6 -->
<g id="edge6" class="edge">
<title>Node4&#45;&gt;Node6</title>
<path fill="none" stroke="#191970" d="M488.2361,-64.5C498.9315,-64.5 509.8389,-64.5 520.4614,-64.5"/>
<polygon fill="#191970" stroke="#191970" points="488.0629,-61.0001 478.0629,-64.5 488.0628,-68.0001 488.0629,-61.0001"/>
</g>
<!-- Node7 -->
<g id="node8" class="node">
<title>Node7</title>
<g id="a_node8"><a xlink:href="classrobowflex_1_1OMPL_1_1UR5OMPLPipelinePlanner.html" target="_top" xlink:title="Convenience class for the default motion planning pipeline for UR5. ">
<polygon fill="none" stroke="#000000" points="517.5,-.5 517.5,-30.5 687.5,-30.5 687.5,-.5 517.5,-.5"/>
<text text-anchor="start" x="525.5" y="-18.5" font-family="Roboto" font-size="10.00" fill="#000000">robowflex::OMPL::UR5OMPLPipeline</text>
<text text-anchor="middle" x="602.5" y="-7.5" font-family="Roboto" font-size="10.00" fill="#000000">Planner</text>
</a>
</g>
</g>
<!-- Node4&#45;&gt;Node7 -->
<g id="edge7" class="edge">
<title>Node4&#45;&gt;Node7</title>
<path fill="none" stroke="#191970" d="M472.8913,-47.0962C495.1264,-41.6757 519.442,-35.748 540.944,-30.5062"/>
<polygon fill="#191970" stroke="#191970" points="472.0591,-43.6964 463.1726,-49.4654 473.7171,-50.4973 472.0591,-43.6964"/>
</g>
</g>
</svg>
