<?xml version="1.0" encoding="UTF-8" standalone="no"?>
<!DOCTYPE svg PUBLIC "-//W3C//DTD SVG 1.1//EN"
 "http://www.w3.org/Graphics/SVG/1.1/DTD/svg11.dtd">
<!-- Generated by graphviz version 2.43.0 (0)
 -->
<!-- Title: robowflex::darts::Joint Pages: 1 -->
<svg width="467pt" height="84pt"
 viewBox="0.00 0.00 466.50 84.00" xmlns="http://www.w3.org/2000/svg" xmlns:xlink="http://www.w3.org/1999/xlink">
<g id="graph0" class="graph" transform="scale(1 1) rotate(0) translate(4 80)">
<title>robowflex::darts::Joint</title>
<!-- Node1 -->
<g id="node1" class="node">
<title>Node1</title>
<g id="a_node1"><a xlink:title="Abstract controllable joint for robowflex::darts::StateSpace.">
<polygon fill="#bfbfbf" stroke="black" points="164.5,-56.5 164.5,-75.5 287.5,-75.5 287.5,-56.5 164.5,-56.5"/>
<text text-anchor="middle" x="226" y="-63.5" font-family="Roboto" font-size="10.00">robowflex::darts::Joint</text>
</a>
</g>
</g>
<!-- Node2 -->
<g id="node2" class="node">
<title>Node2</title>
<g id="a_node2"><a xlink:href="classrobowflex_1_1darts_1_1RnJoint.html" target="_top" xlink:title="A real vector joint of n dimensions.">
<polygon fill="none" stroke="black" points="0,-0.5 0,-19.5 136,-19.5 136,-0.5 0,-0.5"/>
<text text-anchor="middle" x="68" y="-7.5" font-family="Roboto" font-size="10.00">robowflex::darts::RnJoint</text>
</a>
</g>
</g>
<!-- Node1&#45;&gt;Node2 -->
<g id="edge1" class="edge">
<title>Node1&#45;&gt;Node2</title>
<path fill="none" stroke="midnightblue" d="M191.39,-53.17C161.64,-43 119.45,-28.59 92.92,-19.52"/>
<polygon fill="midnightblue" stroke="midnightblue" points="190.37,-56.52 200.96,-56.44 192.63,-49.9 190.37,-56.52"/>
</g>
<!-- Node3 -->
<g id="node3" class="node">
<title>Node3</title>
<g id="a_node3"><a xlink:href="classrobowflex_1_1darts_1_1SO2Joint.html" target="_top" xlink:title="A SO(2) joint. Bounds are from &#45;pi to pi, and wraps.">
<polygon fill="none" stroke="black" points="154.5,-0.5 154.5,-19.5 297.5,-19.5 297.5,-0.5 154.5,-0.5"/>
<text text-anchor="middle" x="226" y="-7.5" font-family="Roboto" font-size="10.00">robowflex::darts::SO2Joint</text>
</a>
</g>
</g>
<!-- Node1&#45;&gt;Node3 -->
<g id="edge2" class="edge">
<title>Node1&#45;&gt;Node3</title>
<path fill="none" stroke="midnightblue" d="M226,-45.8C226,-36.91 226,-26.78 226,-19.75"/>
<polygon fill="midnightblue" stroke="midnightblue" points="222.5,-46.08 226,-56.08 229.5,-46.08 222.5,-46.08"/>
</g>
<!-- Node4 -->
<g id="node4" class="node">
<title>Node4</title>
<g id="a_node4"><a xlink:href="classrobowflex_1_1darts_1_1SO3Joint.html" target="_top" xlink:title="A SO(3) joint modeled with quaternions.">
<polygon fill="none" stroke="black" points="315.5,-0.5 315.5,-19.5 458.5,-19.5 458.5,-0.5 315.5,-0.5"/>
<text text-anchor="middle" x="387" y="-7.5" font-family="Roboto" font-size="10.00">robowflex::darts::SO3Joint</text>
</a>
</g>
</g>
<!-- Node1&#45;&gt;Node4 -->
<g id="edge3" class="edge">
<title>Node1&#45;&gt;Node4</title>
<path fill="none" stroke="midnightblue" d="M261.26,-53.17C291.58,-43 334.57,-28.59 361.61,-19.52"/>
<polygon fill="midnightblue" stroke="midnightblue" points="259.88,-49.95 251.51,-56.44 262.1,-56.58 259.88,-49.95"/>
</g>
</g>
</svg>
