<?xml version="1.0" encoding="UTF-8" standalone="no"?>
<!DOCTYPE svg PUBLIC "-//W3C//DTD SVG 1.1//EN"
 "http://www.w3.org/Graphics/SVG/1.1/DTD/svg11.dtd">
<!-- Generated by graphviz version 2.43.0 (0)
 -->
<!-- Title: robowflex::Planner Pages: 1 -->
<!--zoomable 320 -->
<svg id="main" version="1.1" xmlns="http://www.w3.org/2000/svg" xmlns:xlink="http://www.w3.org/1999/xlink" xml:space="preserve" onload="init(evt)">
<style type="text/css"><![CDATA[
.edge:hover path { stroke: red; }
.edge:hover polygon { stroke: red; fill: red; }
]]></style>
<script type="text/javascript"><![CDATA[
var edges = document.getElementsByTagName('g');
if (edges && edges.length) {
  for (var i=0;i<edges.length;i++) {
    if (edges[i].id.substr(0,4)=='edge') {
      edges[i].setAttribute('class','edge');
    }
  }
}
]]></script>
        <defs>
                <circle id="rim" cx="0" cy="0" r="7"/>
                <circle id="rim2" cx="0" cy="0" r="3.5"/>
                <g id="zoomPlus">
                        <use xlink:href="#rim" fill="#404040">
                                <set attributeName="fill" to="#808080" begin="zoomplus.mouseover" end="zoomplus.mouseout"/>
                        </use>
                        <path d="M-4,0h8M0,-4v8" fill="none" stroke="white" stroke-width="1.5" pointer-events="none"/>
                </g>
                <g id="zoomMin">
                        <use xlink:href="#rim" fill="#404040">
                                <set attributeName="fill" to="#808080" begin="zoomminus.mouseover" end="zoomminus.mouseout"/>
                        </use>
                        <path d="M-4,0h8" fill="none" stroke="white" stroke-width="1.5" pointer-events="none"/>
                </g>
                <g id="dirArrow">
                        <path fill="none" stroke="white" stroke-width="1.5" d="M0,-3.0v7 M-2.5,-0.5L0,-3.0L2.5,-0.5"/>
                </g>
               <g id="resetDef">
                       <use xlink:href="#rim2" fill="#404040">
                               <set attributeName="fill" to="#808080" begin="reset.mouseover" end="reset.mouseout"/>
                       </use>
               </g>
        </defs>

<script type="text/javascript">
var viewWidth = 767;
var viewHeight = 320;
var sectionId = 'dynsection-0';
</script>
<script xlink:href="svgpan.js"/>
<svg id="graph" class="graph">
<g id="viewport">
<title>robowflex::Planner</title>
<!-- Node1 -->
<g id="node1" class="node">
<title>Node1</title>
<g id="a_node1"><a xlink:title="An abstract interface to a motion planning algorithm.">
<polygon fill="#bfbfbf" stroke="black" points="0,-104.5 0,-123.5 107,-123.5 107,-104.5 0,-104.5"/>
<text text-anchor="middle" x="53.5" y="-111.5" font-family="Roboto" font-size="10.00">robowflex::Planner</text>
</a>
</g>
</g>
<!-- Node2 -->
<g id="node2" class="node">
<title>Node2</title>
<g id="a_node2"><a xlink:href="classrobowflex_1_1OMPL_1_1OMPLInterfacePlanner.html" target="_top" xlink:title="A planner that directly uses MoveIt!&#39;s OMPL planning interface.">
<polygon fill="none" stroke="black" points="143,-203 143,-233 319,-233 319,-203 143,-203"/>
<text text-anchor="start" x="151" y="-221" font-family="Roboto" font-size="10.00">robowflex::OMPL::OMPLInterface</text>
<text text-anchor="middle" x="231" y="-210" font-family="Roboto" font-size="10.00">Planner</text>
</a>
</g>
</g>
<!-- Node1&#45;&gt;Node2 -->
<g id="edge1" class="edge">
<title>Node1&#45;&gt;Node2</title>
<path fill="none" stroke="midnightblue" d="M69.59,-131.47C85.96,-149.38 113.71,-176.84 143,-193 149.88,-196.8 157.39,-200.06 165.02,-202.86"/>
<polygon fill="midnightblue" stroke="midnightblue" points="71.78,-128.67 62.51,-123.54 66.56,-133.33 71.78,-128.67"/>
</g>
<!-- Node3 -->
<g id="node3" class="node">
<title>Node3</title>
<g id="a_node3"><a xlink:href="classrobowflex_1_1PipelinePlanner.html" target="_top" xlink:title="A motion planner that uses the MoveIt! planning pipeline to load a planner plugin.">
<polygon fill="none" stroke="black" points="158,-164.5 158,-183.5 304,-183.5 304,-164.5 158,-164.5"/>
<text text-anchor="middle" x="231" y="-171.5" font-family="Roboto" font-size="10.00">robowflex::PipelinePlanner</text>
</a>
</g>
</g>
<!-- Node1&#45;&gt;Node3 -->
<g id="edge2" class="edge">
<title>Node1&#45;&gt;Node3</title>
<path fill="none" stroke="midnightblue" d="M80.93,-128.1C98.2,-136.85 121.47,-147.76 143,-155 153.99,-158.7 166.01,-161.86 177.51,-164.48"/>
<polygon fill="midnightblue" stroke="midnightblue" points="82.49,-124.97 72,-123.5 79.29,-131.19 82.49,-124.97"/>
</g>
<!-- Node11 -->
<g id="node11" class="node">
<title>Node11</title>
<g id="a_node11"><a xlink:href="classrobowflex_1_1PoolPlanner.html" target="_top" xlink:title="A thread pool of planners P to service requests in a multi&#45;threaded environment simultaneously.">
<polygon fill="none" stroke="black" points="167,-126.5 167,-145.5 295,-145.5 295,-126.5 167,-126.5"/>
<text text-anchor="middle" x="231" y="-133.5" font-family="Roboto" font-size="10.00">robowflex::PoolPlanner</text>
</a>
</g>
</g>
<!-- Node1&#45;&gt;Node11 -->
<g id="edge10" class="edge">
<title>Node1&#45;&gt;Node11</title>
<path fill="none" stroke="midnightblue" d="M117.5,-121.9C133.55,-123.91 150.8,-126.07 166.85,-128.08"/>
<polygon fill="midnightblue" stroke="midnightblue" points="117.51,-118.37 107.16,-120.6 116.64,-125.32 117.51,-118.37"/>
</g>
<!-- Node12 -->
<g id="node12" class="node">
<title>Node12</title>
<g id="a_node12"><a xlink:href="classrobowflex_1_1SimpleCartesianPlanner.html" target="_top" xlink:title="A simple motion planner that uses interpolation of the end&#45;effector in Cartesian space to find a path...">
<polygon fill="none" stroke="black" points="155.5,-77 155.5,-107 306.5,-107 306.5,-77 155.5,-77"/>
<text text-anchor="start" x="163.5" y="-95" font-family="Roboto" font-size="10.00">robowflex::SimpleCartesian</text>
<text text-anchor="middle" x="231" y="-84" font-family="Roboto" font-size="10.00">Planner</text>
</a>
</g>
</g>
<!-- Node1&#45;&gt;Node12 -->
<g id="edge11" class="edge">
<title>Node1&#45;&gt;Node12</title>
<path fill="none" stroke="midnightblue" d="M117.31,-106.13C129.63,-104.58 142.66,-102.95 155.32,-101.36"/>
<polygon fill="midnightblue" stroke="midnightblue" points="116.64,-102.68 107.16,-107.4 117.51,-109.63 116.64,-102.68"/>
</g>
<!-- Node13 -->
<g id="node13" class="node">
<title>Node13</title>
<g id="a_node13"><a xlink:href="classrobowflex_1_1TrajOptPlanner.html" target="_top" xlink:title="Robowflex Tesseract TrajOpt Planner.">
<polygon fill="none" stroke="black" points="160,-38.5 160,-57.5 302,-57.5 302,-38.5 160,-38.5"/>
<text text-anchor="middle" x="231" y="-45.5" font-family="Roboto" font-size="10.00">robowflex::TrajOptPlanner</text>
</a>
</g>
</g>
<!-- Node1&#45;&gt;Node13 -->
<g id="edge12" class="edge">
<title>Node1&#45;&gt;Node13</title>
<path fill="none" stroke="midnightblue" d="M78.82,-99.21C96.19,-89.2 120.38,-76.33 143,-68 154.34,-63.82 166.85,-60.34 178.76,-57.51"/>
<polygon fill="midnightblue" stroke="midnightblue" points="76.78,-96.35 69.93,-104.44 80.33,-102.39 76.78,-96.35"/>
</g>
<!-- Node15 -->
<g id="node15" class="node">
<title>Node15</title>
<g id="a_node15"><a xlink:href="classrobowflex_1_1darts_1_1DARTPlanner.html" target="_top" xlink:title="Wrapper for easy access to DART planning tools via standard Robowflex interface.">
<polygon fill="none" stroke="black" points="149,-0.5 149,-19.5 313,-19.5 313,-0.5 149,-0.5"/>
<text text-anchor="middle" x="231" y="-7.5" font-family="Roboto" font-size="10.00">robowflex::darts::DARTPlanner</text>
</a>
</g>
</g>
<!-- Node1&#45;&gt;Node15 -->
<g id="edge14" class="edge">
<title>Node1&#45;&gt;Node15</title>
<path fill="none" stroke="midnightblue" d="M67.91,-96.22C83.68,-76.63 111.71,-45.7 143,-29 150.23,-25.14 158.19,-22.07 166.28,-19.62"/>
<polygon fill="midnightblue" stroke="midnightblue" points="64.97,-94.3 61.56,-104.33 70.48,-98.61 64.97,-94.3"/>
</g>
<!-- Node4 -->
<g id="node4" class="node">
<title>Node4</title>
<g id="a_node4"><a xlink:href="classrobowflex_1_1OMPL_1_1OMPLPipelinePlanner.html" target="_top" xlink:title="A robowflex::PipelinePlanner that uses the MoveIt! default OMPL planning pipeline.">
<polygon fill="none" stroke="black" points="355,-208 355,-238 526,-238 526,-208 355,-208"/>
<text text-anchor="start" x="363" y="-226" font-family="Roboto" font-size="10.00">robowflex::OMPL::OMPLPipeline</text>
<text text-anchor="middle" x="440.5" y="-215" font-family="Roboto" font-size="10.00">Planner</text>
</a>
</g>
</g>
<!-- Node3&#45;&gt;Node4 -->
<g id="edge3" class="edge">
<title>Node3&#45;&gt;Node4</title>
<path fill="none" stroke="midnightblue" d="M283.99,-185.86C295.53,-188.52 307.68,-191.34 319,-194 338.06,-198.48 358.8,-203.44 377.61,-207.98"/>
<polygon fill="midnightblue" stroke="midnightblue" points="284.59,-182.41 274.06,-183.58 283.02,-189.23 284.59,-182.41"/>
</g>
<!-- Node9 -->
<g id="node9" class="node">
<title>Node9</title>
<g id="a_node9"><a xlink:href="classrobowflex_1_1opt_1_1CHOMPPipelinePlanner.html" target="_top" xlink:title="A robowflex::PipelinePlanner that uses the MoveIt! CHOMP planning pipeline.">
<polygon fill="none" stroke="black" points="356.5,-159 356.5,-189 524.5,-189 524.5,-159 356.5,-159"/>
<text text-anchor="start" x="364.5" y="-177" font-family="Roboto" font-size="10.00">robowflex::opt::CHOMPPipeline</text>
<text text-anchor="middle" x="440.5" y="-166" font-family="Roboto" font-size="10.00">Planner</text>
</a>
</g>
</g>
<!-- Node3&#45;&gt;Node9 -->
<g id="edge8" class="edge">
<title>Node3&#45;&gt;Node9</title>
<path fill="none" stroke="midnightblue" d="M314.68,-174C328.43,-174 342.7,-174 356.46,-174"/>
<polygon fill="midnightblue" stroke="midnightblue" points="314.28,-170.5 304.28,-174 314.28,-177.5 314.28,-170.5"/>
</g>
<!-- Node10 -->
<g id="node10" class="node">
<title>Node10</title>
<g id="a_node10"><a xlink:href="classrobowflex_1_1opt_1_1TrajOptPipelinePlanner.html" target="_top" xlink:title="A robowflex::PipelinePlanner that uses the MoveIt! TrajOpt planning pipeline.">
<polygon fill="none" stroke="black" points="357.5,-110 357.5,-140 523.5,-140 523.5,-110 357.5,-110"/>
<text text-anchor="start" x="365.5" y="-128" font-family="Roboto" font-size="10.00">robowflex::opt::TrajOptPipeline</text>
<text text-anchor="middle" x="440.5" y="-117" font-family="Roboto" font-size="10.00">Planner</text>
</a>
</g>
</g>
<!-- Node3&#45;&gt;Node10 -->
<g id="edge9" class="edge">
<title>Node3&#45;&gt;Node10</title>
<path fill="none" stroke="midnightblue" d="M286.84,-162.28C297.52,-159.92 308.62,-157.43 319,-155 339.05,-150.32 360.91,-144.95 380.44,-140.07"/>
<polygon fill="midnightblue" stroke="midnightblue" points="285.78,-158.93 276.76,-164.48 287.28,-165.76 285.78,-158.93"/>
</g>
<!-- Node5 -->
<g id="node5" class="node">
<title>Node5</title>
<g id="a_node5"><a xlink:href="classrobowflex_1_1OMPL_1_1Cob4OMPLPipelinePlanner.html" target="_top" xlink:title="Convenience class for the default motion planning pipeline for Cob4.">
<polygon fill="none" stroke="black" points="562.5,-281 562.5,-311 758.5,-311 758.5,-281 562.5,-281"/>
<text text-anchor="start" x="570.5" y="-299" font-family="Roboto" font-size="10.00">robowflex::OMPL::Cob4OMPLPipeline</text>
<text text-anchor="middle" x="660.5" y="-288" font-family="Roboto" font-size="10.00">Planner</text>
</a>
</g>
</g>
<!-- Node4&#45;&gt;Node5 -->
<g id="edge4" class="edge">
<title>Node4&#45;&gt;Node5</title>
<path fill="none" stroke="midnightblue" d="M484.16,-242.11C506.96,-251.87 535.69,-263.46 562,-272 571.87,-275.2 582.41,-278.21 592.79,-280.95"/>
<polygon fill="midnightblue" stroke="midnightblue" points="485.35,-238.81 474.78,-238.05 482.57,-245.24 485.35,-238.81"/>
</g>
<!-- Node6 -->
<g id="node6" class="node">
<title>Node6</title>
<g id="a_node6"><a xlink:href="classrobowflex_1_1OMPL_1_1FetchOMPLPipelinePlanner.html" target="_top" xlink:title="Convenience class for the default motion planning pipeline for Fetch.">
<polygon fill="none" stroke="black" points="562,-232 562,-262 759,-262 759,-232 562,-232"/>
<text text-anchor="start" x="570" y="-250" font-family="Roboto" font-size="10.00">robowflex::OMPL::FetchOMPLPipeline</text>
<text text-anchor="middle" x="660.5" y="-239" font-family="Roboto" font-size="10.00">Planner</text>
</a>
</g>
</g>
<!-- Node4&#45;&gt;Node6 -->
<g id="edge5" class="edge">
<title>Node4&#45;&gt;Node6</title>
<path fill="none" stroke="midnightblue" d="M536.07,-233.41C544.63,-234.35 553.31,-235.31 561.89,-236.25"/>
<polygon fill="midnightblue" stroke="midnightblue" points="536.42,-229.93 526.1,-232.31 535.65,-236.89 536.42,-229.93"/>
</g>
<!-- Node7 -->
<g id="node7" class="node">
<title>Node7</title>
<g id="a_node7"><a xlink:href="classrobowflex_1_1OMPL_1_1R2OMPLPipelinePlanner.html" target="_top" xlink:title="Convenience class for the default motion planning pipeline for R2 (R2C6 full).">
<polygon fill="none" stroke="black" points="568.5,-183 568.5,-213 752.5,-213 752.5,-183 568.5,-183"/>
<text text-anchor="start" x="576.5" y="-201" font-family="Roboto" font-size="10.00">robowflex::OMPL::R2OMPLPipeline</text>
<text text-anchor="middle" x="660.5" y="-190" font-family="Roboto" font-size="10.00">Planner</text>
</a>
</g>
</g>
<!-- Node4&#45;&gt;Node7 -->
<g id="edge6" class="edge">
<title>Node4&#45;&gt;Node7</title>
<path fill="none" stroke="midnightblue" d="M536.27,-212.13C546.95,-210.91 557.82,-209.66 568.45,-208.44"/>
<polygon fill="midnightblue" stroke="midnightblue" points="535.63,-208.68 526.1,-213.3 536.43,-215.64 535.63,-208.68"/>
</g>
<!-- Node8 -->
<g id="node8" class="node">
<title>Node8</title>
<g id="a_node8"><a xlink:href="classrobowflex_1_1OMPL_1_1UR5OMPLPipelinePlanner.html" target="_top" xlink:title="Convenience class for the default motion planning pipeline for UR5.">
<polygon fill="none" stroke="black" points="565,-134 565,-164 756,-164 756,-134 565,-134"/>
<text text-anchor="start" x="573" y="-152" font-family="Roboto" font-size="10.00">robowflex::OMPL::UR5OMPLPipeline</text>
<text text-anchor="middle" x="660.5" y="-141" font-family="Roboto" font-size="10.00">Planner</text>
</a>
</g>
</g>
<!-- Node4&#45;&gt;Node8 -->
<g id="edge7" class="edge">
<title>Node4&#45;&gt;Node8</title>
<path fill="none" stroke="midnightblue" d="M513.35,-204.4C517.69,-202.72 521.94,-200.92 526,-199 543.61,-190.67 544.29,-182.1 562,-174 570.34,-170.18 579.36,-166.88 588.44,-164.04"/>
<polygon fill="midnightblue" stroke="midnightblue" points="511.96,-201.18 503.75,-207.88 514.34,-207.76 511.96,-201.18"/>
</g>
<!-- Node14 -->
<g id="node14" class="node">
<title>Node14</title>
<g id="a_node14"><a xlink:href="classCustomTrajOptPlanner.html" target="_top" xlink:title=" ">
<polygon fill="none" stroke="black" points="378,-38.5 378,-57.5 503,-57.5 503,-38.5 378,-38.5"/>
<text text-anchor="middle" x="440.5" y="-45.5" font-family="Roboto" font-size="10.00">CustomTrajOptPlanner</text>
</a>
</g>
</g>
<!-- Node13&#45;&gt;Node14 -->
<g id="edge13" class="edge">
<title>Node13&#45;&gt;Node14</title>
<path fill="none" stroke="midnightblue" d="M312.42,-48C334.09,-48 357.19,-48 377.66,-48"/>
<polygon fill="midnightblue" stroke="midnightblue" points="312.25,-44.5 302.25,-48 312.25,-51.5 312.25,-44.5"/>
</g>
</g>
</svg>
        <g id="navigator" transform="translate(0 0)" fill="#404254">
                <rect fill="#f2f5e9" fill-opacity="0.5" stroke="#606060" stroke-width=".5" x="0" y="0" width="60" height="60"/>
                <use id="zoomplus" xlink:href="#zoomPlus" x="17" y="9" onmousedown="handleZoom(evt,'in')"/>
                <use id="zoomminus" xlink:href="#zoomMin" x="42" y="9" onmousedown="handleZoom(evt,'out')"/>
                <use id="reset" xlink:href="#resetDef" x="30" y="36" onmousedown="handleReset()"/>
                <g id="arrowUp" xlink:href="#dirArrow" transform="translate(30 24)" onmousedown="handlePan(0,-1)">
                  <use xlink:href="#rim" fill="#404040">
                        <set attributeName="fill" to="#808080" begin="arrowUp.mouseover" end="arrowUp.mouseout"/>
                  </use>
                  <path fill="none" stroke="white" stroke-width="1.5" d="M0,-3.0v7 M-2.5,-0.5L0,-3.0L2.5,-0.5"/>
                </g>
                <g id="arrowRight" xlink:href="#dirArrow" transform="rotate(90) translate(36 -43)" onmousedown="handlePan(1,0)">
                  <use xlink:href="#rim" fill="#404040">
                        <set attributeName="fill" to="#808080" begin="arrowRight.mouseover" end="arrowRight.mouseout"/>
                  </use>
                  <path fill="none" stroke="white" stroke-width="1.5" d="M0,-3.0v7 M-2.5,-0.5L0,-3.0L2.5,-0.5"/>
                </g>
                <g id="arrowDown" xlink:href="#dirArrow" transform="rotate(180) translate(-30 -48)" onmousedown="handlePan(0,1)">
                  <use xlink:href="#rim" fill="#404040">
                        <set attributeName="fill" to="#808080" begin="arrowDown.mouseover" end="arrowDown.mouseout"/>
                  </use>
                  <path fill="none" stroke="white" stroke-width="1.5" d="M0,-3.0v7 M-2.5,-0.5L0,-3.0L2.5,-0.5"/>
                </g>
                <g id="arrowLeft" xlink:href="#dirArrow" transform="rotate(270) translate(-36 17)" onmousedown="handlePan(-1,0)">
                  <use xlink:href="#rim" fill="#404040">
                        <set attributeName="fill" to="#808080" begin="arrowLeft.mouseover" end="arrowLeft.mouseout"/>
                  </use>
                  <path fill="none" stroke="white" stroke-width="1.5" d="M0,-3.0v7 M-2.5,-0.5L0,-3.0L2.5,-0.5"/>
                </g>
        </g>
        <svg viewBox="0 0 15 15" width="100%" height="30px" preserveAspectRatio="xMaxYMin meet">
         <g id="arrow_out" transform="scale(0.3 0.3)">
          <a xlink:href="classrobowflex_1_1Planner__inherit__graph_org.svg" target="_base">
           <rect id="button" ry="5" rx="5" y="6" x="6" height="38" width="38"
                fill="#f2f5e9" fill-opacity="0.5" stroke="#606060" stroke-width="1.0"/>
           <path id="arrow"
             d="M 11.500037,31.436501 C 11.940474,20.09759 22.043105,11.32322 32.158766,21.979434 L 37.068811,17.246167 C 37.068811,17.246167 37.088388,32 37.088388,32 L 22.160133,31.978069 C 22.160133,31.978069 26.997745,27.140456 26.997745,27.140456 C 18.528582,18.264221 13.291696,25.230495 11.500037,31.436501 z"
             style="fill:#404040;"/>
          </a>
         </g>
        </svg>
</svg>
