<?xml version="1.0" encoding="UTF-8" standalone="no"?>
<!DOCTYPE svg PUBLIC "-//W3C//DTD SVG 1.1//EN"
 "http://www.w3.org/Graphics/SVG/1.1/DTD/svg11.dtd">
<!-- Generated by graphviz version 2.43.0 (0)
 -->
<!-- Title: robowflex::OMPL::Cob4OMPLPipelinePlanner Pages: 1 -->
<svg width="204pt" height="218pt"
 viewBox="0.00 0.00 204.00 218.00" xmlns="http://www.w3.org/2000/svg" xmlns:xlink="http://www.w3.org/1999/xlink">
<g id="graph0" class="graph" transform="scale(1 1) rotate(0) translate(4 214)">
<title>robowflex::OMPL::Cob4OMPLPipelinePlanner</title>
<!-- Node1 -->
<g id="node1" class="node">
<title>Node1</title>
<g id="a_node1"><a xlink:title="Convenience class for the default motion planning pipeline for Cob4.">
<polygon fill="#bfbfbf" stroke="black" points="0,-0.5 0,-30.5 196,-30.5 196,-0.5 0,-0.5"/>
<text text-anchor="start" x="8" y="-18.5" font-family="Roboto" font-size="10.00">robowflex::OMPL::Cob4OMPLPipeline</text>
<text text-anchor="middle" x="98" y="-7.5" font-family="Roboto" font-size="10.00">Planner</text>
</a>
</g>
</g>
<!-- Node2 -->
<g id="node2" class="node">
<title>Node2</title>
<g id="a_node2"><a xlink:href="classrobowflex_1_1OMPL_1_1OMPLPipelinePlanner.html" target="_top" xlink:title="A robowflex::PipelinePlanner that uses the MoveIt! default OMPL planning pipeline.">
<polygon fill="none" stroke="black" points="12.5,-67.5 12.5,-97.5 183.5,-97.5 183.5,-67.5 12.5,-67.5"/>
<text text-anchor="start" x="20.5" y="-85.5" font-family="Roboto" font-size="10.00">robowflex::OMPL::OMPLPipeline</text>
<text text-anchor="middle" x="98" y="-74.5" font-family="Roboto" font-size="10.00">Planner</text>
</a>
</g>
</g>
<!-- Node2&#45;&gt;Node1 -->
<g id="edge1" class="edge">
<title>Node2&#45;&gt;Node1</title>
<path fill="none" stroke="midnightblue" d="M98,-57.11C98,-48.15 98,-38.32 98,-30.58"/>
<polygon fill="midnightblue" stroke="midnightblue" points="94.5,-57.4 98,-67.4 101.5,-57.4 94.5,-57.4"/>
</g>
<!-- Node3 -->
<g id="node3" class="node">
<title>Node3</title>
<g id="a_node3"><a xlink:href="classrobowflex_1_1PipelinePlanner.html" target="_top" xlink:title="A motion planner that uses the MoveIt! planning pipeline to load a planner plugin.">
<polygon fill="none" stroke="black" points="25,-134.5 25,-153.5 171,-153.5 171,-134.5 25,-134.5"/>
<text text-anchor="middle" x="98" y="-141.5" font-family="Roboto" font-size="10.00">robowflex::PipelinePlanner</text>
</a>
</g>
</g>
<!-- Node3&#45;&gt;Node2 -->
<g id="edge2" class="edge">
<title>Node3&#45;&gt;Node2</title>
<path fill="none" stroke="midnightblue" d="M98,-124.23C98,-115.59 98,-105.5 98,-97.52"/>
<polygon fill="midnightblue" stroke="midnightblue" points="94.5,-124.48 98,-134.48 101.5,-124.48 94.5,-124.48"/>
</g>
<!-- Node4 -->
<g id="node4" class="node">
<title>Node4</title>
<g id="a_node4"><a xlink:href="classrobowflex_1_1Planner.html" target="_top" xlink:title="An abstract interface to a motion planning algorithm.">
<polygon fill="none" stroke="black" points="44.5,-190.5 44.5,-209.5 151.5,-209.5 151.5,-190.5 44.5,-190.5"/>
<text text-anchor="middle" x="98" y="-197.5" font-family="Roboto" font-size="10.00">robowflex::Planner</text>
</a>
</g>
</g>
<!-- Node4&#45;&gt;Node3 -->
<g id="edge3" class="edge">
<title>Node4&#45;&gt;Node3</title>
<path fill="none" stroke="midnightblue" d="M98,-179.8C98,-170.91 98,-160.78 98,-153.75"/>
<polygon fill="midnightblue" stroke="midnightblue" points="94.5,-180.08 98,-190.08 101.5,-180.08 94.5,-180.08"/>
</g>
</g>
</svg>
