<?xml version="1.0" encoding="UTF-8" standalone="no"?>
<!DOCTYPE svg PUBLIC "-//W3C//DTD SVG 1.1//EN"
 "http://www.w3.org/Graphics/SVG/1.1/DTD/svg11.dtd">
<!-- Generated by graphviz version 2.43.0 (0)
 -->
<!-- Title: robowflex::darts::ConstraintExtractor Pages: 1 -->
<svg width="375pt" height="104pt"
 viewBox="0.00 0.00 375.00 104.00" xmlns="http://www.w3.org/2000/svg" xmlns:xlink="http://www.w3.org/1999/xlink">
<g id="graph0" class="graph" transform="scale(1 1) rotate(0) translate(4 100)">
<title>robowflex::darts::ConstraintExtractor</title>
<!-- Node1 -->
<g id="node1" class="node">
<title>Node1</title>
<g id="a_node1"><a xlink:title="Helper class to manage extracting states from a possibly constrained state space.">
<polygon fill="#bfbfbf" stroke="black" points="0,-33 0,-63 152,-63 152,-33 0,-33"/>
<text text-anchor="start" x="8" y="-51" font-family="Roboto" font-size="10.00">robowflex::darts::Constraint</text>
<text text-anchor="middle" x="76" y="-40" font-family="Roboto" font-size="10.00">Extractor</text>
</a>
</g>
</g>
<!-- Node2 -->
<g id="node2" class="node">
<title>Node2</title>
<g id="a_node2"><a xlink:href="classrobowflex_1_1darts_1_1JointRegionGoal.html" target="_top" xlink:title="A joint space goal volume.">
<polygon fill="none" stroke="black" points="188,-76.5 188,-95.5 367,-95.5 367,-76.5 188,-76.5"/>
<text text-anchor="middle" x="277.5" y="-83.5" font-family="Roboto" font-size="10.00">robowflex::darts::JointRegionGoal</text>
</a>
</g>
</g>
<!-- Node1&#45;&gt;Node2 -->
<g id="edge1" class="edge">
<title>Node1&#45;&gt;Node2</title>
<path fill="none" stroke="midnightblue" d="M162.14,-64.22C184.09,-68.4 207,-72.76 226.51,-76.48"/>
<polygon fill="midnightblue" stroke="midnightblue" points="162.62,-60.75 152.14,-62.31 161.31,-67.62 162.62,-60.75"/>
</g>
<!-- Node3 -->
<g id="node3" class="node">
<title>Node3</title>
<g id="a_node3"><a xlink:href="classrobowflex_1_1darts_1_1PlanBuilder.html" target="_top" xlink:title="A helper class to setup common OMPL structures for planning.">
<polygon fill="none" stroke="black" points="199,-38.5 199,-57.5 356,-57.5 356,-38.5 199,-38.5"/>
<text text-anchor="middle" x="277.5" y="-45.5" font-family="Roboto" font-size="10.00">robowflex::darts::PlanBuilder</text>
</a>
</g>
</g>
<!-- Node1&#45;&gt;Node3 -->
<g id="edge2" class="edge">
<title>Node1&#45;&gt;Node3</title>
<path fill="none" stroke="midnightblue" d="M162.24,-48C174.37,-48 186.79,-48 198.77,-48"/>
<polygon fill="midnightblue" stroke="midnightblue" points="162.14,-44.5 152.14,-48 162.14,-51.5 162.14,-44.5"/>
</g>
<!-- Node4 -->
<g id="node4" class="node">
<title>Node4</title>
<g id="a_node4"><a xlink:href="classrobowflex_1_1darts_1_1TSRGoal.html" target="_top" xlink:title="A sampleable goal region for OMPL for a set of TSRs. Samples goals in a separate thread using a clone...">
<polygon fill="none" stroke="black" points="206,-0.5 206,-19.5 349,-19.5 349,-0.5 206,-0.5"/>
<text text-anchor="middle" x="277.5" y="-7.5" font-family="Roboto" font-size="10.00">robowflex::darts::TSRGoal</text>
</a>
</g>
</g>
<!-- Node1&#45;&gt;Node4 -->
<g id="edge3" class="edge">
<title>Node1&#45;&gt;Node4</title>
<path fill="none" stroke="midnightblue" d="M162.14,-31.78C184.09,-27.6 207,-23.24 226.51,-19.52"/>
<polygon fill="midnightblue" stroke="midnightblue" points="161.31,-28.38 152.14,-33.69 162.62,-35.25 161.31,-28.38"/>
</g>
</g>
</svg>
