<?xml version="1.0" encoding="UTF-8" standalone="no"?>
<!DOCTYPE svg PUBLIC "-//W3C//DTD SVG 1.1//EN"
 "http://www.w3.org/Graphics/SVG/1.1/DTD/svg11.dtd">
<!-- Generated by graphviz version 2.40.1 (20161225.0304)
 -->
<!-- Title: robowflex::PipelinePlanner Pages: 1 -->
<!--zoomable 137 -->
<svg id="main" version="1.1" xmlns="http://www.w3.org/2000/svg" xmlns:xlink="http://www.w3.org/1999/xlink" xml:space="preserve" onload="init(evt)">
<style type="text/css"><![CDATA[
.edge:hover path { stroke: red; }
.edge:hover polygon { stroke: red; fill: red; }
]]></style>
<script type="text/javascript"><![CDATA[
var edges = document.getElementsByTagName('g');
if (edges && edges.length) {
  for (var i=0;i<edges.length;i++) {
    if (edges[i].id.substr(0,4)=='edge') {
      edges[i].setAttribute('class','edge');
    }
  }
}
]]></script>
        <defs>
                <circle id="rim" cx="0" cy="0" r="7"/>
                <circle id="rim2" cx="0" cy="0" r="3.5"/>
                <g id="zoomPlus">
                        <use xlink:href="#rim" fill="#404040">
                                <set attributeName="fill" to="#808080" begin="zoomplus.mouseover" end="zoomplus.mouseout"/>
                        </use>
                        <path d="M-4,0h8M0,-4v8" fill="none" stroke="white" stroke-width="1.5" pointer-events="none"/>
                </g>
                <g id="zoomMin">
                        <use xlink:href="#rim" fill="#404040">
                                <set attributeName="fill" to="#808080" begin="zoomminus.mouseover" end="zoomminus.mouseout"/>
                        </use>
                        <path d="M-4,0h8" fill="none" stroke="white" stroke-width="1.5" pointer-events="none"/>
                </g>
                <g id="dirArrow">
                        <path fill="none" stroke="white" stroke-width="1.5" d="M0,-3.0v7 M-2.5,-0.5L0,-3.0L2.5,-0.5"/>
                </g>
               <g id="resetDef">
                       <use xlink:href="#rim2" fill="#404040">
                               <set attributeName="fill" to="#808080" begin="reset.mouseover" end="reset.mouseout"/>
                       </use>
               </g>
        </defs>

<script type="text/javascript">
var viewWidth = 669;
var viewHeight = 137;
var sectionId = 'dynsection-0';
</script>
<script xlink:href="svgpan.js"/>
<svg id="graph" class="graph">
<g id="viewport">
<title>robowflex::PipelinePlanner</title>
<!-- Node0 -->
<g id="node1" class="node">
<title>Node0</title>
<polygon fill="#bfbfbf" stroke="#000000" points="131,-55 131,-74 259,-74 259,-55 131,-55"/>
<text text-anchor="middle" x="195" y="-62" font-family="Roboto" font-size="10.00" fill="#000000">robowflex::PipelinePlanner</text>
</g>
<!-- Node2 -->
<g id="node3" class="node">
<title>Node2</title>
<g id="a_node3"><a xlink:href="classrobowflex_1_1OMPL_1_1OMPLPipelinePlanner.html" target="_top" xlink:title="A robowflex::PipelinePlanner that uses the MoveIt! default OMPL planning pipeline. ">
<polygon fill="none" stroke="#000000" points="295,-49.5 295,-79.5 448,-79.5 448,-49.5 295,-49.5"/>
<text text-anchor="start" x="303" y="-67.5" font-family="Roboto" font-size="10.00" fill="#000000">robowflex::OMPL::OMPLPipeline</text>
<text text-anchor="middle" x="371.5" y="-56.5" font-family="Roboto" font-size="10.00" fill="#000000">Planner</text>
</a>
</g>
</g>
<!-- Node0&#45;&gt;Node2 -->
<g id="edge2" class="edge">
<title>Node0&#45;&gt;Node2</title>
<path fill="none" stroke="#191970" d="M269.3479,-64.5C277.7383,-64.5 286.3006,-64.5 294.7213,-64.5"/>
<polygon fill="#191970" stroke="#191970" points="269.2199,-61.0001 259.2198,-64.5 269.2198,-68.0001 269.2199,-61.0001"/>
</g>
<!-- Node1 -->
<g id="node2" class="node">
<title>Node1</title>
<g id="a_node2"><a xlink:href="classrobowflex_1_1Planner.html" target="_top" xlink:title="An abstract interface to a motion planning algorithm. ">
<polygon fill="none" stroke="#000000" points="0,-55 0,-74 95,-74 95,-55 0,-55"/>
<text text-anchor="middle" x="47.5" y="-62" font-family="Roboto" font-size="10.00" fill="#000000">robowflex::Planner</text>
</a>
</g>
</g>
<!-- Node1&#45;&gt;Node0 -->
<g id="edge1" class="edge">
<title>Node1&#45;&gt;Node0</title>
<path fill="none" stroke="#191970" d="M105.4407,-64.5C113.8229,-64.5 122.491,-64.5 130.9839,-64.5"/>
<polygon fill="#191970" stroke="#191970" points="105.3891,-61.0001 95.389,-64.5 105.389,-68.0001 105.3891,-61.0001"/>
</g>
<!-- Node3 -->
<g id="node4" class="node">
<title>Node3</title>
<g id="a_node4"><a xlink:href="classrobowflex_1_1OMPL_1_1FetchOMPLPipelinePlanner.html" target="_top" xlink:title="Convenience class for the default motion planning pipeline for Fetch. ">
<polygon fill="none" stroke="#000000" points="484,-98.5 484,-128.5 661,-128.5 661,-98.5 484,-98.5"/>
<text text-anchor="start" x="492" y="-116.5" font-family="Roboto" font-size="10.00" fill="#000000">robowflex::OMPL::FetchOMPLPipeline</text>
<text text-anchor="middle" x="572.5" y="-105.5" font-family="Roboto" font-size="10.00" fill="#000000">Planner</text>
</a>
</g>
</g>
<!-- Node2&#45;&gt;Node3 -->
<g id="edge3" class="edge">
<title>Node2&#45;&gt;Node3</title>
<path fill="none" stroke="#191970" d="M442.8913,-81.9038C465.1264,-87.3243 489.442,-93.252 510.944,-98.4938"/>
<polygon fill="#191970" stroke="#191970" points="443.7171,-78.5027 433.1726,-79.5346 442.0591,-85.3036 443.7171,-78.5027"/>
</g>
<!-- Node4 -->
<g id="node5" class="node">
<title>Node4</title>
<g id="a_node5"><a xlink:href="classrobowflex_1_1OMPL_1_1R2OMPLPipelinePlanner.html" target="_top" xlink:title="Convenience class for the default motion planning pipeline for R2 (R2C6 full). ">
<polygon fill="none" stroke="#000000" points="490.5,-49.5 490.5,-79.5 654.5,-79.5 654.5,-49.5 490.5,-49.5"/>
<text text-anchor="start" x="498.5" y="-67.5" font-family="Roboto" font-size="10.00" fill="#000000">robowflex::OMPL::R2OMPLPipeline</text>
<text text-anchor="middle" x="572.5" y="-56.5" font-family="Roboto" font-size="10.00" fill="#000000">Planner</text>
</a>
</g>
</g>
<!-- Node2&#45;&gt;Node4 -->
<g id="edge4" class="edge">
<title>Node2&#45;&gt;Node4</title>
<path fill="none" stroke="#191970" d="M458.2361,-64.5C468.9315,-64.5 479.8389,-64.5 490.4614,-64.5"/>
<polygon fill="#191970" stroke="#191970" points="458.0629,-61.0001 448.0629,-64.5 458.0628,-68.0001 458.0629,-61.0001"/>
</g>
<!-- Node5 -->
<g id="node6" class="node">
<title>Node5</title>
<g id="a_node6"><a xlink:href="classrobowflex_1_1OMPL_1_1UR5OMPLPipelinePlanner.html" target="_top" xlink:title="Convenience class for the default motion planning pipeline for UR5. ">
<polygon fill="none" stroke="#000000" points="487.5,-.5 487.5,-30.5 657.5,-30.5 657.5,-.5 487.5,-.5"/>
<text text-anchor="start" x="495.5" y="-18.5" font-family="Roboto" font-size="10.00" fill="#000000">robowflex::OMPL::UR5OMPLPipeline</text>
<text text-anchor="middle" x="572.5" y="-7.5" font-family="Roboto" font-size="10.00" fill="#000000">Planner</text>
</a>
</g>
</g>
<!-- Node2&#45;&gt;Node5 -->
<g id="edge5" class="edge">
<title>Node2&#45;&gt;Node5</title>
<path fill="none" stroke="#191970" d="M442.8913,-47.0962C465.1264,-41.6757 489.442,-35.748 510.944,-30.5062"/>
<polygon fill="#191970" stroke="#191970" points="442.0591,-43.6964 433.1726,-49.4654 443.7171,-50.4973 442.0591,-43.6964"/>
</g>
</g>
</svg>
        <g id="navigator" transform="translate(0 0)" fill="#404254">
                <rect fill="#f2f5e9" fill-opacity="0.5" stroke="#606060" stroke-width=".5" x="0" y="0" width="60" height="60"/>
                <use id="zoomplus" xlink:href="#zoomPlus" x="17" y="9" onmousedown="handleZoom(evt,'in')"/>
                <use id="zoomminus" xlink:href="#zoomMin" x="42" y="9" onmousedown="handleZoom(evt,'out')"/>
                <use id="reset" xlink:href="#resetDef" x="30" y="36" onmousedown="handleReset()"/>
                <g id="arrowUp" xlink:href="#dirArrow" transform="translate(30 24)" onmousedown="handlePan(0,-1)">
                  <use xlink:href="#rim" fill="#404040">
                        <set attributeName="fill" to="#808080" begin="arrowUp.mouseover" end="arrowUp.mouseout"/>
                  </use>
                  <path fill="none" stroke="white" stroke-width="1.5" d="M0,-3.0v7 M-2.5,-0.5L0,-3.0L2.5,-0.5"/>
                </g>
                <g id="arrowRight" xlink:href="#dirArrow" transform="rotate(90) translate(36 -43)" onmousedown="handlePan(1,0)">
                  <use xlink:href="#rim" fill="#404040">
                        <set attributeName="fill" to="#808080" begin="arrowRight.mouseover" end="arrowRight.mouseout"/>
                  </use>
                  <path fill="none" stroke="white" stroke-width="1.5" d="M0,-3.0v7 M-2.5,-0.5L0,-3.0L2.5,-0.5"/>
                </g>
                <g id="arrowDown" xlink:href="#dirArrow" transform="rotate(180) translate(-30 -48)" onmousedown="handlePan(0,1)">
                  <use xlink:href="#rim" fill="#404040">
                        <set attributeName="fill" to="#808080" begin="arrowDown.mouseover" end="arrowDown.mouseout"/>
                  </use>
                  <path fill="none" stroke="white" stroke-width="1.5" d="M0,-3.0v7 M-2.5,-0.5L0,-3.0L2.5,-0.5"/>
                </g>
                <g id="arrowLeft" xlink:href="#dirArrow" transform="rotate(270) translate(-36 17)" onmousedown="handlePan(-1,0)">
                  <use xlink:href="#rim" fill="#404040">
                        <set attributeName="fill" to="#808080" begin="arrowLeft.mouseover" end="arrowLeft.mouseout"/>
                  </use>
                  <path fill="none" stroke="white" stroke-width="1.5" d="M0,-3.0v7 M-2.5,-0.5L0,-3.0L2.5,-0.5"/>
                </g>
        </g>
        <svg viewBox="0 0 15 15" width="100%" height="30px" preserveAspectRatio="xMaxYMin meet">
         <g id="arrow_out" transform="scale(0.3 0.3)">
          <a xlink:href="classrobowflex_1_1PipelinePlanner__inherit__graph_org.svg" target="_base">
           <rect id="button" ry="5" rx="5" y="6" x="6" height="38" width="38"
                fill="#f2f5e9" fill-opacity="0.5" stroke="#606060" stroke-width="1.0"/>
           <path id="arrow"
             d="M 11.500037,31.436501 C 11.940474,20.09759 22.043105,11.32322 32.158766,21.979434 L 37.068811,17.246167 C 37.068811,17.246167 37.088388,32 37.088388,32 L 22.160133,31.978069 C 22.160133,31.978069 26.997745,27.140456 26.997745,27.140456 C 18.528582,18.264221 13.291696,25.230495 11.500037,31.436501 z"
             style="fill:#404040;"/>
          </a>
         </g>
        </svg>
</svg>
