<?xml version="1.0" encoding="UTF-8" standalone="no"?>
<!DOCTYPE svg PUBLIC "-//W3C//DTD SVG 1.1//EN"
 "http://www.w3.org/Graphics/SVG/1.1/DTD/svg11.dtd">
<!-- Generated by graphviz version 2.43.0 (0)
 -->
<!-- Title: robowflex::OMPL::OMPLPipelinePlanner Pages: 1 -->
<svg width="737pt" height="186pt"
 viewBox="0.00 0.00 737.00 186.00" xmlns="http://www.w3.org/2000/svg" xmlns:xlink="http://www.w3.org/1999/xlink">
<g id="graph0" class="graph" transform="scale(1 1) rotate(0) translate(4 182)">
<title>robowflex::OMPL::OMPLPipelinePlanner</title>
<!-- Node1 -->
<g id="node1" class="node">
<title>Node1</title>
<g id="a_node1"><a xlink:title="A robowflex::PipelinePlanner that uses the MoveIt! default OMPL planning pipeline.">
<polygon fill="#bfbfbf" stroke="black" points="325,-73.5 325,-103.5 496,-103.5 496,-73.5 325,-73.5"/>
<text text-anchor="start" x="333" y="-91.5" font-family="Roboto" font-size="10.00">robowflex::OMPL::OMPLPipeline</text>
<text text-anchor="middle" x="410.5" y="-80.5" font-family="Roboto" font-size="10.00">Planner</text>
</a>
</g>
</g>
<!-- Node4 -->
<g id="node4" class="node">
<title>Node4</title>
<g id="a_node4"><a xlink:href="classrobowflex_1_1OMPL_1_1Cob4OMPLPipelinePlanner.html" target="_top" xlink:title="Convenience class for the default motion planning pipeline for Cob4.">
<polygon fill="none" stroke="black" points="532.5,-147.5 532.5,-177.5 728.5,-177.5 728.5,-147.5 532.5,-147.5"/>
<text text-anchor="start" x="540.5" y="-165.5" font-family="Roboto" font-size="10.00">robowflex::OMPL::Cob4OMPLPipeline</text>
<text text-anchor="middle" x="630.5" y="-154.5" font-family="Roboto" font-size="10.00">Planner</text>
</a>
</g>
</g>
<!-- Node1&#45;&gt;Node4 -->
<g id="edge3" class="edge">
<title>Node1&#45;&gt;Node4</title>
<path fill="none" stroke="midnightblue" d="M453.39,-107.73C476.3,-117.77 505.36,-129.75 532,-138.5 541.77,-141.71 552.22,-144.71 562.51,-147.44"/>
<polygon fill="midnightblue" stroke="midnightblue" points="454.54,-104.41 443.98,-103.56 451.71,-110.81 454.54,-104.41"/>
</g>
<!-- Node5 -->
<g id="node5" class="node">
<title>Node5</title>
<g id="a_node5"><a xlink:href="classrobowflex_1_1OMPL_1_1FetchOMPLPipelinePlanner.html" target="_top" xlink:title="Convenience class for the default motion planning pipeline for Fetch.">
<polygon fill="none" stroke="black" points="532,-98.5 532,-128.5 729,-128.5 729,-98.5 532,-98.5"/>
<text text-anchor="start" x="540" y="-116.5" font-family="Roboto" font-size="10.00">robowflex::OMPL::FetchOMPLPipeline</text>
<text text-anchor="middle" x="630.5" y="-105.5" font-family="Roboto" font-size="10.00">Planner</text>
</a>
</g>
</g>
<!-- Node1&#45;&gt;Node5 -->
<g id="edge4" class="edge">
<title>Node1&#45;&gt;Node5</title>
<path fill="none" stroke="midnightblue" d="M506.07,-99.35C514.63,-100.33 523.31,-101.32 531.89,-102.31"/>
<polygon fill="midnightblue" stroke="midnightblue" points="506.43,-95.86 496.1,-98.2 505.63,-102.82 506.43,-95.86"/>
</g>
<!-- Node6 -->
<g id="node6" class="node">
<title>Node6</title>
<g id="a_node6"><a xlink:href="classrobowflex_1_1OMPL_1_1R2OMPLPipelinePlanner.html" target="_top" xlink:title="Convenience class for the default motion planning pipeline for R2 (R2C6 full).">
<polygon fill="none" stroke="black" points="538.5,-49.5 538.5,-79.5 722.5,-79.5 722.5,-49.5 538.5,-49.5"/>
<text text-anchor="start" x="546.5" y="-67.5" font-family="Roboto" font-size="10.00">robowflex::OMPL::R2OMPLPipeline</text>
<text text-anchor="middle" x="630.5" y="-56.5" font-family="Roboto" font-size="10.00">Planner</text>
</a>
</g>
</g>
<!-- Node1&#45;&gt;Node6 -->
<g id="edge5" class="edge">
<title>Node1&#45;&gt;Node6</title>
<path fill="none" stroke="midnightblue" d="M506.27,-78.07C516.95,-76.89 527.82,-75.69 538.45,-74.52"/>
<polygon fill="midnightblue" stroke="midnightblue" points="505.65,-74.61 496.1,-79.19 506.42,-81.57 505.65,-74.61"/>
</g>
<!-- Node7 -->
<g id="node7" class="node">
<title>Node7</title>
<g id="a_node7"><a xlink:href="classrobowflex_1_1OMPL_1_1UR5OMPLPipelinePlanner.html" target="_top" xlink:title="Convenience class for the default motion planning pipeline for UR5.">
<polygon fill="none" stroke="black" points="535,-0.5 535,-30.5 726,-30.5 726,-0.5 535,-0.5"/>
<text text-anchor="start" x="543" y="-18.5" font-family="Roboto" font-size="10.00">robowflex::OMPL::UR5OMPLPipeline</text>
<text text-anchor="middle" x="630.5" y="-7.5" font-family="Roboto" font-size="10.00">Planner</text>
</a>
</g>
</g>
<!-- Node1&#45;&gt;Node7 -->
<g id="edge6" class="edge">
<title>Node1&#45;&gt;Node7</title>
<path fill="none" stroke="midnightblue" d="M454.16,-69.39C476.96,-59.63 505.69,-48.04 532,-39.5 541.87,-36.3 552.41,-33.29 562.79,-30.55"/>
<polygon fill="midnightblue" stroke="midnightblue" points="452.57,-66.26 444.78,-73.45 455.35,-72.69 452.57,-66.26"/>
</g>
<!-- Node2 -->
<g id="node2" class="node">
<title>Node2</title>
<g id="a_node2"><a xlink:href="classrobowflex_1_1PipelinePlanner.html" target="_top" xlink:title="A motion planner that uses the MoveIt! planning pipeline to load a planner plugin.">
<polygon fill="none" stroke="black" points="143,-79 143,-98 289,-98 289,-79 143,-79"/>
<text text-anchor="middle" x="216" y="-86" font-family="Roboto" font-size="10.00">robowflex::PipelinePlanner</text>
</a>
</g>
</g>
<!-- Node2&#45;&gt;Node1 -->
<g id="edge1" class="edge">
<title>Node2&#45;&gt;Node1</title>
<path fill="none" stroke="midnightblue" d="M299.42,-88.5C307.85,-88.5 316.42,-88.5 324.87,-88.5"/>
<polygon fill="midnightblue" stroke="midnightblue" points="299.23,-85 289.23,-88.5 299.23,-92 299.23,-85"/>
</g>
<!-- Node3 -->
<g id="node3" class="node">
<title>Node3</title>
<g id="a_node3"><a xlink:href="classrobowflex_1_1Planner.html" target="_top" xlink:title="An abstract interface to a motion planning algorithm.">
<polygon fill="none" stroke="black" points="0,-79 0,-98 107,-98 107,-79 0,-79"/>
<text text-anchor="middle" x="53.5" y="-86" font-family="Roboto" font-size="10.00">robowflex::Planner</text>
</a>
</g>
</g>
<!-- Node3&#45;&gt;Node2 -->
<g id="edge2" class="edge">
<title>Node3&#45;&gt;Node2</title>
<path fill="none" stroke="midnightblue" d="M117.15,-88.5C125.56,-88.5 134.24,-88.5 142.8,-88.5"/>
<polygon fill="midnightblue" stroke="midnightblue" points="117.05,-85 107.05,-88.5 117.05,-92 117.05,-85"/>
</g>
</g>
</svg>
