<?xml version="1.0" encoding="UTF-8" standalone="no"?>
<!DOCTYPE svg PUBLIC "-//W3C//DTD SVG 1.1//EN"
 "http://www.w3.org/Graphics/SVG/1.1/DTD/svg11.dtd">
<!-- Generated by graphviz version 2.43.0 (0)
 -->
<!-- Title: robowflex::ID Pages: 1 -->
<svg width="270pt" height="95pt"
 viewBox="0.00 0.00 270.00 95.00" xmlns="http://www.w3.org/2000/svg" xmlns:xlink="http://www.w3.org/1999/xlink">
<g id="graph0" class="graph" transform="scale(1 1) rotate(0) translate(4 91)">
<title>robowflex::ID</title>
<!-- Node1 -->
<g id="node1" class="node">
<title>Node1</title>
<g id="a_node1"><a xlink:title="Adds functionality to uniquely ID a specific class as well as the &quot;version&quot; of that class,...">
<polygon fill="#bfbfbf" stroke="black" points="101.5,-67.5 101.5,-86.5 182.5,-86.5 182.5,-67.5 101.5,-67.5"/>
<text text-anchor="middle" x="142" y="-74.5" font-family="Roboto" font-size="10.00">robowflex::ID</text>
</a>
</g>
</g>
<!-- Node2 -->
<g id="node2" class="node">
<title>Node2</title>
<g id="a_node2"><a xlink:href="classrobowflex_1_1MotionRequestBuilder.html" target="_top" xlink:title="A helper class to build motion planning requests for a robowflex::Planner.">
<polygon fill="none" stroke="black" points="0,-0.5 0,-30.5 144,-30.5 144,-0.5 0,-0.5"/>
<text text-anchor="start" x="8" y="-18.5" font-family="Roboto" font-size="10.00">robowflex::MotionRequest</text>
<text text-anchor="middle" x="72" y="-7.5" font-family="Roboto" font-size="10.00">Builder</text>
</a>
</g>
</g>
<!-- Node1&#45;&gt;Node2 -->
<g id="edge1" class="edge">
<title>Node1&#45;&gt;Node2</title>
<path fill="none" stroke="midnightblue" d="M124.26,-60.92C113.27,-51.58 99.25,-39.66 88.5,-30.52"/>
<polygon fill="midnightblue" stroke="midnightblue" points="122.08,-63.67 131.97,-67.48 126.62,-58.33 122.08,-63.67"/>
</g>
<!-- Node3 -->
<g id="node3" class="node">
<title>Node3</title>
<g id="a_node3"><a xlink:href="classrobowflex_1_1Scene.html" target="_top" xlink:title="Wrapper class around the planning scene and collision geometry.">
<polygon fill="none" stroke="black" points="162,-6 162,-25 262,-25 262,-6 162,-6"/>
<text text-anchor="middle" x="212" y="-13" font-family="Roboto" font-size="10.00">robowflex::Scene</text>
</a>
</g>
</g>
<!-- Node1&#45;&gt;Node3 -->
<g id="edge2" class="edge">
<title>Node1&#45;&gt;Node3</title>
<path fill="none" stroke="midnightblue" d="M159.68,-60.97C173.07,-49.59 190.98,-34.37 201.99,-25.01"/>
<polygon fill="midnightblue" stroke="midnightblue" points="157.38,-58.33 152.03,-67.48 161.92,-63.67 157.38,-58.33"/>
</g>
</g>
</svg>
