<?xml version="1.0" encoding="UTF-8" standalone="no"?>
<!DOCTYPE svg PUBLIC "-//W3C//DTD SVG 1.1//EN"
 "http://www.w3.org/Graphics/SVG/1.1/DTD/svg11.dtd">
<!-- Generated by graphviz version 2.43.0 (0)
 -->
<!-- Title: robowflex::darts::Widget Pages: 1 -->
<svg width="513pt" height="137pt"
 viewBox="0.00 0.00 513.00 137.00" xmlns="http://www.w3.org/2000/svg" xmlns:xlink="http://www.w3.org/1999/xlink">
<g id="graph0" class="graph" transform="scale(1 1) rotate(0) translate(4 133)">
<title>robowflex::darts::Widget</title>
<!-- Node1 -->
<g id="node1" class="node">
<title>Node1</title>
<g id="a_node1"><a xlink:title="Abstract class for IMGUI Widget.">
<polygon fill="#bfbfbf" stroke="black" points="186,-55 186,-74 322,-74 322,-55 186,-55"/>
<text text-anchor="middle" x="254" y="-62" font-family="Roboto" font-size="10.00">robowflex::darts::Widget</text>
</a>
</g>
</g>
<!-- Node3 -->
<g id="node3" class="node">
<title>Node3</title>
<g id="a_node3"><a xlink:href="classrobowflex_1_1darts_1_1TSREditWidget.html" target="_top" xlink:title="IMGUI widget to design TSRs.">
<polygon fill="none" stroke="black" points="362,-98.5 362,-128.5 501,-128.5 501,-98.5 362,-98.5"/>
<text text-anchor="start" x="370" y="-116.5" font-family="Roboto" font-size="10.00">robowflex::darts::TSREdit</text>
<text text-anchor="middle" x="431.5" y="-105.5" font-family="Roboto" font-size="10.00">Widget</text>
</a>
</g>
</g>
<!-- Node1&#45;&gt;Node3 -->
<g id="edge2" class="edge">
<title>Node1&#45;&gt;Node3</title>
<path fill="none" stroke="midnightblue" d="M298.97,-76.78C322.53,-83.35 351.74,-91.51 376.64,-98.46"/>
<polygon fill="midnightblue" stroke="midnightblue" points="299.83,-73.38 289.25,-74.06 297.95,-80.12 299.83,-73.38"/>
</g>
<!-- Node4 -->
<g id="node4" class="node">
<title>Node4</title>
<g id="a_node4"><a xlink:href="classrobowflex_1_1darts_1_1TSRSolveWidget.html" target="_top" xlink:title="Class for solving a set of TSRs.">
<polygon fill="none" stroke="black" points="358,-49.5 358,-79.5 505,-79.5 505,-49.5 358,-49.5"/>
<text text-anchor="start" x="366" y="-67.5" font-family="Roboto" font-size="10.00">robowflex::darts::TSRSolve</text>
<text text-anchor="middle" x="431.5" y="-56.5" font-family="Roboto" font-size="10.00">Widget</text>
</a>
</g>
</g>
<!-- Node1&#45;&gt;Node4 -->
<g id="edge3" class="edge">
<title>Node1&#45;&gt;Node4</title>
<path fill="none" stroke="midnightblue" d="M332.36,-64.5C340.85,-64.5 349.46,-64.5 357.89,-64.5"/>
<polygon fill="midnightblue" stroke="midnightblue" points="332.1,-61 322.1,-64.5 332.1,-68 332.1,-61"/>
</g>
<!-- Node5 -->
<g id="node5" class="node">
<title>Node5</title>
<g id="a_node5"><a xlink:href="classrobowflex_1_1darts_1_1WindowWidget.html" target="_top" xlink:title="IMGUI widget to add interactive GUI elements programmatically.">
<polygon fill="none" stroke="black" points="361.5,-0.5 361.5,-30.5 501.5,-30.5 501.5,-0.5 361.5,-0.5"/>
<text text-anchor="start" x="369.5" y="-18.5" font-family="Roboto" font-size="10.00">robowflex::darts::Window</text>
<text text-anchor="middle" x="431.5" y="-7.5" font-family="Roboto" font-size="10.00">Widget</text>
</a>
</g>
</g>
<!-- Node1&#45;&gt;Node5 -->
<g id="edge4" class="edge">
<title>Node1&#45;&gt;Node5</title>
<path fill="none" stroke="midnightblue" d="M298.97,-52.22C322.53,-45.65 351.74,-37.49 376.64,-30.54"/>
<polygon fill="midnightblue" stroke="midnightblue" points="297.95,-48.88 289.25,-54.94 299.83,-55.62 297.95,-48.88"/>
</g>
<!-- Node2 -->
<g id="node2" class="node">
<title>Node2</title>
<g id="a_node2"><a xlink:title=" ">
<polygon fill="none" stroke="#bfbfbf" points="0,-55 0,-74 150,-74 150,-55 0,-55"/>
<text text-anchor="middle" x="75" y="-62" font-family="Roboto" font-size="10.00">dart::gui::osg::ImGuiWidget</text>
</a>
</g>
</g>
<!-- Node2&#45;&gt;Node1 -->
<g id="edge1" class="edge">
<title>Node2&#45;&gt;Node1</title>
<path fill="none" stroke="midnightblue" d="M160.09,-64.5C168.7,-64.5 177.36,-64.5 185.75,-64.5"/>
<polygon fill="midnightblue" stroke="midnightblue" points="160.04,-61 150.04,-64.5 160.04,-68 160.04,-61"/>
</g>
</g>
</svg>
