<?xml version="1.0" encoding="UTF-8" standalone="no"?>
<!DOCTYPE svg PUBLIC "-//W3C//DTD SVG 1.1//EN"
 "http://www.w3.org/Graphics/SVG/1.1/DTD/svg11.dtd">
<!-- Generated by graphviz version 2.40.1 (20161225.0304)
 -->
<!-- Title: robowflex::Robot Pages: 1 -->
<svg width="491pt" height="84pt"
 viewBox="0.00 0.00 490.50 84.00" xmlns="http://www.w3.org/2000/svg" xmlns:xlink="http://www.w3.org/1999/xlink">
<g id="graph0" class="graph" transform="scale(1 1) rotate(0) translate(4 80)">
<title>robowflex::Robot</title>
<!-- Node0 -->
<g id="node1" class="node">
<title>Node0</title>
<polygon fill="#bfbfbf" stroke="#000000" points="205,-56.5 205,-75.5 292,-75.5 292,-56.5 205,-56.5"/>
<text text-anchor="middle" x="248.5" y="-63.5" font-family="Roboto" font-size="10.00" fill="#000000">robowflex::Robot</text>
</g>
<!-- Node1 -->
<g id="node2" class="node">
<title>Node1</title>
<g id="a_node2"><a xlink:href="classrobowflex_1_1FetchRobot.html" target="_top" xlink:title="Convenience class that describes the default setup for Fetch (with robotiq gripper and load cell) ...">
<polygon fill="none" stroke="#000000" points="0,-.5 0,-19.5 111,-19.5 111,-.5 0,-.5"/>
<text text-anchor="middle" x="55.5" y="-7.5" font-family="Roboto" font-size="10.00" fill="#000000">robowflex::FetchRobot</text>
</a>
</g>
</g>
<!-- Node0&#45;&gt;Node1 -->
<g id="edge1" class="edge">
<title>Node0&#45;&gt;Node1</title>
<path fill="none" stroke="#191970" d="M205.2683,-53.4561C169.8404,-43.1765 120.463,-28.8494 88.2449,-19.5011"/>
<polygon fill="#191970" stroke="#191970" points="204.7429,-56.9479 215.3221,-56.3733 206.6936,-50.2252 204.7429,-56.9479"/>
</g>
<!-- Node2 -->
<g id="node3" class="node">
<title>Node2</title>
<g id="a_node3"><a xlink:href="classrobowflex_1_1ParamRobot.html" target="_top" xlink:title="Loads information about a robot from the parameter server. ">
<polygon fill="none" stroke="#000000" points="129,-.5 129,-19.5 244,-19.5 244,-.5 129,-.5"/>
<text text-anchor="middle" x="186.5" y="-7.5" font-family="Roboto" font-size="10.00" fill="#000000">robowflex::ParamRobot</text>
</a>
</g>
</g>
<!-- Node0&#45;&gt;Node2 -->
<g id="edge2" class="edge">
<title>Node0&#45;&gt;Node2</title>
<path fill="none" stroke="#191970" d="M230.0779,-49.3607C219.3519,-39.6727 206.2066,-27.7995 197.1758,-19.6427"/>
<polygon fill="#191970" stroke="#191970" points="227.9334,-52.14 237.7004,-56.2455 232.6254,-46.9453 227.9334,-52.14"/>
</g>
<!-- Node3 -->
<g id="node4" class="node">
<title>Node3</title>
<g id="a_node4"><a xlink:href="classrobowflex_1_1R2Robot.html" target="_top" xlink:title="Convenience class that describes the default setup for R2 (R2C6 full). ">
<polygon fill="none" stroke="#000000" points="262.5,-.5 262.5,-19.5 360.5,-19.5 360.5,-.5 262.5,-.5"/>
<text text-anchor="middle" x="311.5" y="-7.5" font-family="Roboto" font-size="10.00" fill="#000000">robowflex::R2Robot</text>
</a>
</g>
</g>
<!-- Node0&#45;&gt;Node3 -->
<g id="edge3" class="edge">
<title>Node0&#45;&gt;Node3</title>
<path fill="none" stroke="#191970" d="M267.2192,-49.3607C278.1182,-39.6727 291.4755,-27.7995 300.652,-19.6427"/>
<polygon fill="#191970" stroke="#191970" points="264.6226,-46.9859 259.4738,-56.2455 269.2732,-52.2178 264.6226,-46.9859"/>
</g>
<!-- Node4 -->
<g id="node5" class="node">
<title>Node4</title>
<g id="a_node5"><a xlink:href="classrobowflex_1_1UR5Robot.html" target="_top" xlink:title="Convenience class that describes the default setup for UR5 (with robotiq gripper and load cell) ...">
<polygon fill="none" stroke="#000000" points="378.5,-.5 378.5,-19.5 482.5,-19.5 482.5,-.5 378.5,-.5"/>
<text text-anchor="middle" x="430.5" y="-7.5" font-family="Roboto" font-size="10.00" fill="#000000">robowflex::UR5Robot</text>
</a>
</g>
</g>
<!-- Node0&#45;&gt;Node4 -->
<g id="edge4" class="edge">
<title>Node0&#45;&gt;Node4</title>
<path fill="none" stroke="#191970" d="M289.6986,-53.3235C323.0758,-43.0536 369.3699,-28.8093 399.6214,-19.5011"/>
<polygon fill="#191970" stroke="#191970" points="288.3154,-50.0871 279.7869,-56.3733 290.374,-56.7776 288.3154,-50.0871"/>
</g>
</g>
</svg>
