<?xml version="1.0" encoding="UTF-8" standalone="no"?>
<!DOCTYPE svg PUBLIC "-//W3C//DTD SVG 1.1//EN"
 "http://www.w3.org/Graphics/SVG/1.1/DTD/svg11.dtd">
<!-- Generated by graphviz version 2.43.0 (0)
 -->
<!-- Title: robowflex::OMPL::R2OMPLPipelinePlanner Pages: 1 -->
<svg width="192pt" height="218pt"
 viewBox="0.00 0.00 192.00 218.00" xmlns="http://www.w3.org/2000/svg" xmlns:xlink="http://www.w3.org/1999/xlink">
<g id="graph0" class="graph" transform="scale(1 1) rotate(0) translate(4 214)">
<title>robowflex::OMPL::R2OMPLPipelinePlanner</title>
<!-- Node1 -->
<g id="node1" class="node">
<title>Node1</title>
<g id="a_node1"><a xlink:title="Convenience class for the default motion planning pipeline for R2 (R2C6 full).">
<polygon fill="#bfbfbf" stroke="black" points="0,-0.5 0,-30.5 184,-30.5 184,-0.5 0,-0.5"/>
<text text-anchor="start" x="8" y="-18.5" font-family="Roboto" font-size="10.00">robowflex::OMPL::R2OMPLPipeline</text>
<text text-anchor="middle" x="92" y="-7.5" font-family="Roboto" font-size="10.00">Planner</text>
</a>
</g>
</g>
<!-- Node2 -->
<g id="node2" class="node">
<title>Node2</title>
<g id="a_node2"><a xlink:href="classrobowflex_1_1OMPL_1_1OMPLPipelinePlanner.html" target="_top" xlink:title="A robowflex::PipelinePlanner that uses the MoveIt! default OMPL planning pipeline.">
<polygon fill="none" stroke="black" points="6.5,-67.5 6.5,-97.5 177.5,-97.5 177.5,-67.5 6.5,-67.5"/>
<text text-anchor="start" x="14.5" y="-85.5" font-family="Roboto" font-size="10.00">robowflex::OMPL::OMPLPipeline</text>
<text text-anchor="middle" x="92" y="-74.5" font-family="Roboto" font-size="10.00">Planner</text>
</a>
</g>
</g>
<!-- Node2&#45;&gt;Node1 -->
<g id="edge1" class="edge">
<title>Node2&#45;&gt;Node1</title>
<path fill="none" stroke="midnightblue" d="M92,-57.11C92,-48.15 92,-38.32 92,-30.58"/>
<polygon fill="midnightblue" stroke="midnightblue" points="88.5,-57.4 92,-67.4 95.5,-57.4 88.5,-57.4"/>
</g>
<!-- Node3 -->
<g id="node3" class="node">
<title>Node3</title>
<g id="a_node3"><a xlink:href="classrobowflex_1_1PipelinePlanner.html" target="_top" xlink:title="A motion planner that uses the MoveIt! planning pipeline to load a planner plugin.">
<polygon fill="none" stroke="black" points="19,-134.5 19,-153.5 165,-153.5 165,-134.5 19,-134.5"/>
<text text-anchor="middle" x="92" y="-141.5" font-family="Roboto" font-size="10.00">robowflex::PipelinePlanner</text>
</a>
</g>
</g>
<!-- Node3&#45;&gt;Node2 -->
<g id="edge2" class="edge">
<title>Node3&#45;&gt;Node2</title>
<path fill="none" stroke="midnightblue" d="M92,-124.23C92,-115.59 92,-105.5 92,-97.52"/>
<polygon fill="midnightblue" stroke="midnightblue" points="88.5,-124.48 92,-134.48 95.5,-124.48 88.5,-124.48"/>
</g>
<!-- Node4 -->
<g id="node4" class="node">
<title>Node4</title>
<g id="a_node4"><a xlink:href="classrobowflex_1_1Planner.html" target="_top" xlink:title="An abstract interface to a motion planning algorithm.">
<polygon fill="none" stroke="black" points="38.5,-190.5 38.5,-209.5 145.5,-209.5 145.5,-190.5 38.5,-190.5"/>
<text text-anchor="middle" x="92" y="-197.5" font-family="Roboto" font-size="10.00">robowflex::Planner</text>
</a>
</g>
</g>
<!-- Node4&#45;&gt;Node3 -->
<g id="edge3" class="edge">
<title>Node4&#45;&gt;Node3</title>
<path fill="none" stroke="midnightblue" d="M92,-179.8C92,-170.91 92,-160.78 92,-153.75"/>
<polygon fill="midnightblue" stroke="midnightblue" points="88.5,-180.08 92,-190.08 95.5,-180.08 88.5,-180.08"/>
</g>
</g>
</svg>
