<?xml version="1.0" encoding="UTF-8" standalone="no"?>
<!DOCTYPE svg PUBLIC "-//W3C//DTD SVG 1.1//EN"
 "http://www.w3.org/Graphics/SVG/1.1/DTD/svg11.dtd">
<!-- Generated by graphviz version 2.43.0 (0)
 -->
<!-- Title: robowflex::darts::TSREditWidget Pages: 1 -->
<svg width="158pt" height="151pt"
 viewBox="0.00 0.00 158.00 151.00" xmlns="http://www.w3.org/2000/svg" xmlns:xlink="http://www.w3.org/1999/xlink">
<g id="graph0" class="graph" transform="scale(1 1) rotate(0) translate(4 147)">
<title>robowflex::darts::TSREditWidget</title>
<!-- Node1 -->
<g id="node1" class="node">
<title>Node1</title>
<g id="a_node1"><a xlink:title="IMGUI widget to design TSRs.">
<polygon fill="#bfbfbf" stroke="black" points="5.5,-0.5 5.5,-30.5 144.5,-30.5 144.5,-0.5 5.5,-0.5"/>
<text text-anchor="start" x="13.5" y="-18.5" font-family="Roboto" font-size="10.00">robowflex::darts::TSREdit</text>
<text text-anchor="middle" x="75" y="-7.5" font-family="Roboto" font-size="10.00">Widget</text>
</a>
</g>
</g>
<!-- Node2 -->
<g id="node2" class="node">
<title>Node2</title>
<g id="a_node2"><a xlink:href="classrobowflex_1_1darts_1_1Widget.html" target="_top" xlink:title="Abstract class for IMGUI Widget.">
<polygon fill="none" stroke="black" points="7,-67.5 7,-86.5 143,-86.5 143,-67.5 7,-67.5"/>
<text text-anchor="middle" x="75" y="-74.5" font-family="Roboto" font-size="10.00">robowflex::darts::Widget</text>
</a>
</g>
</g>
<!-- Node2&#45;&gt;Node1 -->
<g id="edge1" class="edge">
<title>Node2&#45;&gt;Node1</title>
<path fill="none" stroke="midnightblue" d="M75,-57.23C75,-48.59 75,-38.5 75,-30.52"/>
<polygon fill="midnightblue" stroke="midnightblue" points="71.5,-57.48 75,-67.48 78.5,-57.48 71.5,-57.48"/>
</g>
<!-- Node3 -->
<g id="node3" class="node">
<title>Node3</title>
<g id="a_node3"><a xlink:title=" ">
<polygon fill="none" stroke="#bfbfbf" points="0,-123.5 0,-142.5 150,-142.5 150,-123.5 0,-123.5"/>
<text text-anchor="middle" x="75" y="-130.5" font-family="Roboto" font-size="10.00">dart::gui::osg::ImGuiWidget</text>
</a>
</g>
</g>
<!-- Node3&#45;&gt;Node2 -->
<g id="edge2" class="edge">
<title>Node3&#45;&gt;Node2</title>
<path fill="none" stroke="midnightblue" d="M75,-112.8C75,-103.91 75,-93.78 75,-86.75"/>
<polygon fill="midnightblue" stroke="midnightblue" points="71.5,-113.08 75,-123.08 78.5,-113.08 71.5,-113.08"/>
</g>
</g>
</svg>
