<?xml version="1.0" encoding="UTF-8" standalone="no"?>
<!DOCTYPE svg PUBLIC "-//W3C//DTD SVG 1.1//EN"
 "http://www.w3.org/Graphics/SVG/1.1/DTD/svg11.dtd">
<!-- Generated by graphviz version 2.43.0 (0)
 -->
<!-- Title: robowflex::darts::JointRegionGoal Pages: 1 -->
<svg width="336pt" height="95pt"
 viewBox="0.00 0.00 335.50 95.00" xmlns="http://www.w3.org/2000/svg" xmlns:xlink="http://www.w3.org/1999/xlink">
<g id="graph0" class="graph" transform="scale(1 1) rotate(0) translate(4 91)">
<title>robowflex::darts::JointRegionGoal</title>
<!-- Node1 -->
<g id="node1" class="node">
<title>Node1</title>
<g id="a_node1"><a xlink:title="A joint space goal volume.">
<polygon fill="#bfbfbf" stroke="black" points="75,-0.5 75,-19.5 254,-19.5 254,-0.5 75,-0.5"/>
<text text-anchor="middle" x="164.5" y="-7.5" font-family="Roboto" font-size="10.00">robowflex::darts::JointRegionGoal</text>
</a>
</g>
</g>
<!-- Node2 -->
<g id="node2" class="node">
<title>Node2</title>
<g id="a_node2"><a xlink:title=" ">
<polygon fill="none" stroke="#bfbfbf" points="0,-56.5 0,-86.5 157,-86.5 157,-56.5 0,-56.5"/>
<text text-anchor="start" x="8" y="-74.5" font-family="Roboto" font-size="10.00">ompl::base::GoalSampleable</text>
<text text-anchor="middle" x="78.5" y="-63.5" font-family="Roboto" font-size="10.00">Region</text>
</a>
</g>
</g>
<!-- Node2&#45;&gt;Node1 -->
<g id="edge1" class="edge">
<title>Node2&#45;&gt;Node1</title>
<path fill="none" stroke="midnightblue" d="M107.43,-50.48C122.58,-40 140.35,-27.71 151.99,-19.66"/>
<polygon fill="midnightblue" stroke="midnightblue" points="105.11,-47.83 98.88,-56.4 109.1,-53.59 105.11,-47.83"/>
</g>
<!-- Node3 -->
<g id="node3" class="node">
<title>Node3</title>
<g id="a_node3"><a xlink:href="classrobowflex_1_1darts_1_1ConstraintExtractor.html" target="_top" xlink:title="Helper class to manage extracting states from a possibly constrained state space.">
<polygon fill="none" stroke="black" points="175.5,-56.5 175.5,-86.5 327.5,-86.5 327.5,-56.5 175.5,-56.5"/>
<text text-anchor="start" x="183.5" y="-74.5" font-family="Roboto" font-size="10.00">robowflex::darts::Constraint</text>
<text text-anchor="middle" x="251.5" y="-63.5" font-family="Roboto" font-size="10.00">Extractor</text>
</a>
</g>
</g>
<!-- Node3&#45;&gt;Node1 -->
<g id="edge2" class="edge">
<title>Node3&#45;&gt;Node1</title>
<path fill="none" stroke="midnightblue" d="M222.23,-50.48C206.91,-40 188.93,-27.71 177.16,-19.66"/>
<polygon fill="midnightblue" stroke="midnightblue" points="220.65,-53.64 230.88,-56.4 224.6,-47.87 220.65,-53.64"/>
</g>
</g>
</svg>
