<?xml version="1.0" encoding="UTF-8" standalone="no"?>
<!DOCTYPE svg PUBLIC "-//W3C//DTD SVG 1.1//EN"
 "http://www.w3.org/Graphics/SVG/1.1/DTD/svg11.dtd">
<!-- Generated by graphviz version 2.43.0 (0)
 -->
<!-- Title: robowflex::darts::TSRGoal Pages: 1 -->
<svg width="342pt" height="95pt"
 viewBox="0.00 0.00 342.00 95.00" xmlns="http://www.w3.org/2000/svg" xmlns:xlink="http://www.w3.org/1999/xlink">
<g id="graph0" class="graph" transform="scale(1 1) rotate(0) translate(4 91)">
<title>robowflex::darts::TSRGoal</title>
<!-- Node1 -->
<g id="node1" class="node">
<title>Node1</title>
<g id="a_node1"><a xlink:title="A sampleable goal region for OMPL for a set of TSRs. Samples goals in a separate thread using a clone...">
<polygon fill="#bfbfbf" stroke="black" points="98.5,-0.5 98.5,-19.5 241.5,-19.5 241.5,-0.5 98.5,-0.5"/>
<text text-anchor="middle" x="170" y="-7.5" font-family="Roboto" font-size="10.00">robowflex::darts::TSRGoal</text>
</a>
</g>
</g>
<!-- Node2 -->
<g id="node2" class="node">
<title>Node2</title>
<g id="a_node2"><a xlink:title=" ">
<polygon fill="none" stroke="#bfbfbf" points="0,-62 0,-81 164,-81 164,-62 0,-62"/>
<text text-anchor="middle" x="82" y="-69" font-family="Roboto" font-size="10.00">ompl::base::GoalLazySamples</text>
</a>
</g>
</g>
<!-- Node2&#45;&gt;Node1 -->
<g id="edge1" class="edge">
<title>Node2&#45;&gt;Node1</title>
<path fill="none" stroke="midnightblue" d="M103.28,-56.11C120.2,-44.67 143.31,-29.05 157.42,-19.51"/>
<polygon fill="midnightblue" stroke="midnightblue" points="100.93,-53.47 94.61,-61.98 104.85,-59.27 100.93,-53.47"/>
</g>
<!-- Node3 -->
<g id="node3" class="node">
<title>Node3</title>
<g id="a_node3"><a xlink:href="classrobowflex_1_1darts_1_1ConstraintExtractor.html" target="_top" xlink:title="Helper class to manage extracting states from a possibly constrained state space.">
<polygon fill="none" stroke="black" points="182,-56.5 182,-86.5 334,-86.5 334,-56.5 182,-56.5"/>
<text text-anchor="start" x="190" y="-74.5" font-family="Roboto" font-size="10.00">robowflex::darts::Constraint</text>
<text text-anchor="middle" x="258" y="-63.5" font-family="Roboto" font-size="10.00">Extractor</text>
</a>
</g>
</g>
<!-- Node3&#45;&gt;Node1 -->
<g id="edge2" class="edge">
<title>Node3&#45;&gt;Node1</title>
<path fill="none" stroke="midnightblue" d="M228.83,-50.78C213.23,-40.23 194.82,-27.78 182.8,-19.66"/>
<polygon fill="midnightblue" stroke="midnightblue" points="226.9,-53.7 237.15,-56.4 230.82,-47.9 226.9,-53.7"/>
</g>
</g>
</svg>
