<?xml version="1.0" encoding="UTF-8" standalone="no"?>
<!DOCTYPE svg PUBLIC "-//W3C//DTD SVG 1.1//EN"
 "http://www.w3.org/Graphics/SVG/1.1/DTD/svg11.dtd">
<!-- Generated by graphviz version 2.43.0 (0)
 -->
<!-- Title: robowflex::OMPL::FetchOMPLPipelinePlanner Pages: 1 -->
<svg width="205pt" height="218pt"
 viewBox="0.00 0.00 205.00 218.00" xmlns="http://www.w3.org/2000/svg" xmlns:xlink="http://www.w3.org/1999/xlink">
<g id="graph0" class="graph" transform="scale(1 1) rotate(0) translate(4 214)">
<title>robowflex::OMPL::FetchOMPLPipelinePlanner</title>
<!-- Node1 -->
<g id="node1" class="node">
<title>Node1</title>
<g id="a_node1"><a xlink:title="Convenience class for the default motion planning pipeline for Fetch.">
<polygon fill="#bfbfbf" stroke="black" points="0,-0.5 0,-30.5 197,-30.5 197,-0.5 0,-0.5"/>
<text text-anchor="start" x="8" y="-18.5" font-family="Roboto" font-size="10.00">robowflex::OMPL::FetchOMPLPipeline</text>
<text text-anchor="middle" x="98.5" y="-7.5" font-family="Roboto" font-size="10.00">Planner</text>
</a>
</g>
</g>
<!-- Node2 -->
<g id="node2" class="node">
<title>Node2</title>
<g id="a_node2"><a xlink:href="classrobowflex_1_1OMPL_1_1OMPLPipelinePlanner.html" target="_top" xlink:title="A robowflex::PipelinePlanner that uses the MoveIt! default OMPL planning pipeline.">
<polygon fill="none" stroke="black" points="13,-67.5 13,-97.5 184,-97.5 184,-67.5 13,-67.5"/>
<text text-anchor="start" x="21" y="-85.5" font-family="Roboto" font-size="10.00">robowflex::OMPL::OMPLPipeline</text>
<text text-anchor="middle" x="98.5" y="-74.5" font-family="Roboto" font-size="10.00">Planner</text>
</a>
</g>
</g>
<!-- Node2&#45;&gt;Node1 -->
<g id="edge1" class="edge">
<title>Node2&#45;&gt;Node1</title>
<path fill="none" stroke="midnightblue" d="M98.5,-57.11C98.5,-48.15 98.5,-38.32 98.5,-30.58"/>
<polygon fill="midnightblue" stroke="midnightblue" points="95,-57.4 98.5,-67.4 102,-57.4 95,-57.4"/>
</g>
<!-- Node3 -->
<g id="node3" class="node">
<title>Node3</title>
<g id="a_node3"><a xlink:href="classrobowflex_1_1PipelinePlanner.html" target="_top" xlink:title="A motion planner that uses the MoveIt! planning pipeline to load a planner plugin.">
<polygon fill="none" stroke="black" points="25.5,-134.5 25.5,-153.5 171.5,-153.5 171.5,-134.5 25.5,-134.5"/>
<text text-anchor="middle" x="98.5" y="-141.5" font-family="Roboto" font-size="10.00">robowflex::PipelinePlanner</text>
</a>
</g>
</g>
<!-- Node3&#45;&gt;Node2 -->
<g id="edge2" class="edge">
<title>Node3&#45;&gt;Node2</title>
<path fill="none" stroke="midnightblue" d="M98.5,-124.23C98.5,-115.59 98.5,-105.5 98.5,-97.52"/>
<polygon fill="midnightblue" stroke="midnightblue" points="95,-124.48 98.5,-134.48 102,-124.48 95,-124.48"/>
</g>
<!-- Node4 -->
<g id="node4" class="node">
<title>Node4</title>
<g id="a_node4"><a xlink:href="classrobowflex_1_1Planner.html" target="_top" xlink:title="An abstract interface to a motion planning algorithm.">
<polygon fill="none" stroke="black" points="45,-190.5 45,-209.5 152,-209.5 152,-190.5 45,-190.5"/>
<text text-anchor="middle" x="98.5" y="-197.5" font-family="Roboto" font-size="10.00">robowflex::Planner</text>
</a>
</g>
</g>
<!-- Node4&#45;&gt;Node3 -->
<g id="edge3" class="edge">
<title>Node4&#45;&gt;Node3</title>
<path fill="none" stroke="midnightblue" d="M98.5,-179.8C98.5,-170.91 98.5,-160.78 98.5,-153.75"/>
<polygon fill="midnightblue" stroke="midnightblue" points="95,-180.08 98.5,-190.08 102,-180.08 95,-180.08"/>
</g>
</g>
</svg>
