<?xml version="1.0" encoding="UTF-8" standalone="no"?>
<!DOCTYPE svg PUBLIC "-//W3C//DTD SVG 1.1//EN"
 "http://www.w3.org/Graphics/SVG/1.1/DTD/svg11.dtd">
<!-- Generated by graphviz version 2.43.0 (0)
 -->
<!-- Title: robowflex::PlanDataSetOutputter Pages: 1 -->
<svg width="379pt" height="186pt"
 viewBox="0.00 0.00 379.00 186.00" xmlns="http://www.w3.org/2000/svg" xmlns:xlink="http://www.w3.org/1999/xlink">
<g id="graph0" class="graph" transform="scale(1 1) rotate(0) translate(4 182)">
<title>robowflex::PlanDataSetOutputter</title>
<!-- Node1 -->
<g id="node1" class="node">
<title>Node1</title>
<g id="a_node1"><a xlink:title="An abstract class for outputting benchmark results.">
<polygon fill="#bfbfbf" stroke="black" points="0,-79 0,-98 177,-98 177,-79 0,-79"/>
<text text-anchor="middle" x="88.5" y="-86" font-family="Roboto" font-size="10.00">robowflex::PlanDataSetOutputter</text>
</a>
</g>
</g>
<!-- Node2 -->
<g id="node2" class="node">
<title>Node2</title>
<g id="a_node2"><a xlink:href="classrobowflex_1_1IO_1_1GNUPlotPlanDataSetOutputter.html" target="_top" xlink:title="Helper class to plot a real metric as a box plot using GNUPlot from benchmarking data.">
<polygon fill="none" stroke="black" points="217.5,-147.5 217.5,-177.5 366.5,-177.5 366.5,-147.5 217.5,-147.5"/>
<text text-anchor="start" x="225.5" y="-165.5" font-family="Roboto" font-size="10.00">robowflex::IO::GNUPlotPlan</text>
<text text-anchor="middle" x="292" y="-154.5" font-family="Roboto" font-size="10.00">DataSetOutputter</text>
</a>
</g>
</g>
<!-- Node1&#45;&gt;Node2 -->
<g id="edge1" class="edge">
<title>Node1&#45;&gt;Node2</title>
<path fill="none" stroke="midnightblue" d="M120.86,-102.07C145.65,-112.58 181.25,-127.21 213,-138.5 221.54,-141.54 230.69,-144.56 239.61,-147.38"/>
<polygon fill="midnightblue" stroke="midnightblue" points="122.16,-98.82 111.59,-98.12 119.41,-105.26 122.16,-98.82"/>
</g>
<!-- Node3 -->
<g id="node3" class="node">
<title>Node3</title>
<g id="a_node3"><a xlink:href="classrobowflex_1_1JSONPlanDataSetOutputter.html" target="_top" xlink:title="A benchmark outputter for storing data in a single JSON file.">
<polygon fill="none" stroke="black" points="214.5,-98.5 214.5,-128.5 369.5,-128.5 369.5,-98.5 214.5,-98.5"/>
<text text-anchor="start" x="222.5" y="-116.5" font-family="Roboto" font-size="10.00">robowflex::JSONPlanDataSet</text>
<text text-anchor="middle" x="292" y="-105.5" font-family="Roboto" font-size="10.00">Outputter</text>
</a>
</g>
</g>
<!-- Node1&#45;&gt;Node3 -->
<g id="edge2" class="edge">
<title>Node1&#45;&gt;Node3</title>
<path fill="none" stroke="midnightblue" d="M176.34,-99.27C189.02,-100.85 202,-102.46 214.46,-104"/>
<polygon fill="midnightblue" stroke="midnightblue" points="176.61,-95.78 166.25,-98.02 175.75,-102.73 176.61,-95.78"/>
</g>
<!-- Node4 -->
<g id="node4" class="node">
<title>Node4</title>
<g id="a_node4"><a xlink:href="classrobowflex_1_1OMPLPlanDataSetOutputter.html" target="_top" xlink:title="Benchmark outputter that saves results into OMPL benchmarking log files. If ompl_benchmark_statistics...">
<polygon fill="none" stroke="black" points="213,-49.5 213,-79.5 371,-79.5 371,-49.5 213,-49.5"/>
<text text-anchor="start" x="221" y="-67.5" font-family="Roboto" font-size="10.00">robowflex::OMPLPlanDataSet</text>
<text text-anchor="middle" x="292" y="-56.5" font-family="Roboto" font-size="10.00">Outputter</text>
</a>
</g>
</g>
<!-- Node1&#45;&gt;Node4 -->
<g id="edge3" class="edge">
<title>Node1&#45;&gt;Node4</title>
<path fill="none" stroke="midnightblue" d="M179.55,-77.77C190.65,-76.45 201.92,-75.11 212.81,-73.81"/>
<polygon fill="midnightblue" stroke="midnightblue" points="178.94,-74.32 169.43,-78.98 179.77,-81.27 178.94,-74.32"/>
</g>
<!-- Node5 -->
<g id="node5" class="node">
<title>Node5</title>
<g id="a_node5"><a xlink:href="classrobowflex_1_1TrajectoryPlanDataSetOutputter.html" target="_top" xlink:title="Benchmark outputter that saves each trajectory from each run to a rosbag file.">
<polygon fill="none" stroke="black" points="222,-0.5 222,-30.5 362,-30.5 362,-0.5 222,-0.5"/>
<text text-anchor="start" x="230" y="-18.5" font-family="Roboto" font-size="10.00">robowflex::TrajectoryPlan</text>
<text text-anchor="middle" x="292" y="-7.5" font-family="Roboto" font-size="10.00">DataSetOutputter</text>
</a>
</g>
</g>
<!-- Node1&#45;&gt;Node5 -->
<g id="edge4" class="edge">
<title>Node1&#45;&gt;Node5</title>
<path fill="none" stroke="midnightblue" d="M122.31,-75.12C147.08,-65.18 181.99,-51.48 213,-40.5 222.52,-37.13 232.75,-33.7 242.58,-30.52"/>
<polygon fill="midnightblue" stroke="midnightblue" points="120.98,-71.89 113.02,-78.87 123.6,-78.38 120.98,-71.89"/>
</g>
</g>
</svg>
