<?xml version="1.0" encoding="UTF-8" standalone="no"?>
<!DOCTYPE svg PUBLIC "-//W3C//DTD SVG 1.1//EN"
 "http://www.w3.org/Graphics/SVG/1.1/DTD/svg11.dtd">
<!-- Generated by graphviz version 2.43.0 (0)
 -->
<!-- Title: CustomTrajOptPlanner Pages: 1 -->
<svg width="150pt" height="140pt"
 viewBox="0.00 0.00 150.00 140.00" xmlns="http://www.w3.org/2000/svg" xmlns:xlink="http://www.w3.org/1999/xlink">
<g id="graph0" class="graph" transform="scale(1 1) rotate(0) translate(4 136)">
<title>CustomTrajOptPlanner</title>
<!-- Node1 -->
<g id="node1" class="node">
<title>Node1</title>
<g id="a_node1"><a xlink:title=" ">
<polygon fill="#bfbfbf" stroke="black" points="8.5,-0.5 8.5,-19.5 133.5,-19.5 133.5,-0.5 8.5,-0.5"/>
<text text-anchor="middle" x="71" y="-7.5" font-family="Roboto" font-size="10.00">CustomTrajOptPlanner</text>
</a>
</g>
</g>
<!-- Node2 -->
<g id="node2" class="node">
<title>Node2</title>
<g id="a_node2"><a xlink:href="classrobowflex_1_1TrajOptPlanner.html" target="_top" xlink:title="Robowflex Tesseract TrajOpt Planner.">
<polygon fill="none" stroke="black" points="0,-56.5 0,-75.5 142,-75.5 142,-56.5 0,-56.5"/>
<text text-anchor="middle" x="71" y="-63.5" font-family="Roboto" font-size="10.00">robowflex::TrajOptPlanner</text>
</a>
</g>
</g>
<!-- Node2&#45;&gt;Node1 -->
<g id="edge1" class="edge">
<title>Node2&#45;&gt;Node1</title>
<path fill="none" stroke="midnightblue" d="M71,-45.8C71,-36.91 71,-26.78 71,-19.75"/>
<polygon fill="midnightblue" stroke="midnightblue" points="67.5,-46.08 71,-56.08 74.5,-46.08 67.5,-46.08"/>
</g>
<!-- Node3 -->
<g id="node3" class="node">
<title>Node3</title>
<g id="a_node3"><a xlink:href="classrobowflex_1_1Planner.html" target="_top" xlink:title="An abstract interface to a motion planning algorithm.">
<polygon fill="none" stroke="black" points="17.5,-112.5 17.5,-131.5 124.5,-131.5 124.5,-112.5 17.5,-112.5"/>
<text text-anchor="middle" x="71" y="-119.5" font-family="Roboto" font-size="10.00">robowflex::Planner</text>
</a>
</g>
</g>
<!-- Node3&#45;&gt;Node2 -->
<g id="edge2" class="edge">
<title>Node3&#45;&gt;Node2</title>
<path fill="none" stroke="midnightblue" d="M71,-101.8C71,-92.91 71,-82.78 71,-75.75"/>
<polygon fill="midnightblue" stroke="midnightblue" points="67.5,-102.08 71,-112.08 74.5,-102.08 67.5,-102.08"/>
</g>
</g>
</svg>
