<?xml version="1.0" encoding="UTF-8" standalone="no"?>
<!DOCTYPE svg PUBLIC "-//W3C//DTD SVG 1.1//EN"
 "http://www.w3.org/Graphics/SVG/1.1/DTD/svg11.dtd">
<!-- Generated by graphviz version 2.40.1 (20161225.0304)
 -->
<!-- Title: robowflex::OMPL::FetchOMPLPipelinePlanner Pages: 1 -->
<svg width="185pt" height="218pt"
 viewBox="0.00 0.00 185.00 218.00" xmlns="http://www.w3.org/2000/svg" xmlns:xlink="http://www.w3.org/1999/xlink">
<g id="graph0" class="graph" transform="scale(1 1) rotate(0) translate(4 214)">
<title>robowflex::OMPL::FetchOMPLPipelinePlanner</title>
<!-- Node0 -->
<g id="node1" class="node">
<title>Node0</title>
<polygon fill="#bfbfbf" stroke="#000000" points="0,-.5 0,-30.5 177,-30.5 177,-.5 0,-.5"/>
<text text-anchor="start" x="8" y="-18.5" font-family="Roboto" font-size="10.00" fill="#000000">robowflex::OMPL::FetchOMPLPipeline</text>
<text text-anchor="middle" x="88.5" y="-7.5" font-family="Roboto" font-size="10.00" fill="#000000">Planner</text>
</g>
<!-- Node1 -->
<g id="node2" class="node">
<title>Node1</title>
<g id="a_node2"><a xlink:href="classrobowflex_1_1OMPL_1_1OMPLPipelinePlanner.html" target="_top" xlink:title="A robowflex::PipelinePlanner that uses the MoveIt! default OMPL planning pipeline. ">
<polygon fill="none" stroke="#000000" points="12,-67.5 12,-97.5 165,-97.5 165,-67.5 12,-67.5"/>
<text text-anchor="start" x="20" y="-85.5" font-family="Roboto" font-size="10.00" fill="#000000">robowflex::OMPL::OMPLPipeline</text>
<text text-anchor="middle" x="88.5" y="-74.5" font-family="Roboto" font-size="10.00" fill="#000000">Planner</text>
</a>
</g>
</g>
<!-- Node1&#45;&gt;Node0 -->
<g id="edge1" class="edge">
<title>Node1&#45;&gt;Node0</title>
<path fill="none" stroke="#191970" d="M88.5,-57.0249C88.5,-48.128 88.5,-38.4287 88.5,-30.6432"/>
<polygon fill="#191970" stroke="#191970" points="85.0001,-57.2966 88.5,-67.2967 92.0001,-57.2967 85.0001,-57.2966"/>
</g>
<!-- Node2 -->
<g id="node3" class="node">
<title>Node2</title>
<g id="a_node3"><a xlink:href="classrobowflex_1_1PipelinePlanner.html" target="_top" xlink:title="A motion planner that uses the MoveIt! planning pipeline to load a planner plugin. ">
<polygon fill="none" stroke="#000000" points="24.5,-134.5 24.5,-153.5 152.5,-153.5 152.5,-134.5 24.5,-134.5"/>
<text text-anchor="middle" x="88.5" y="-141.5" font-family="Roboto" font-size="10.00" fill="#000000">robowflex::PipelinePlanner</text>
</a>
</g>
</g>
<!-- Node2&#45;&gt;Node1 -->
<g id="edge2" class="edge">
<title>Node2&#45;&gt;Node1</title>
<path fill="none" stroke="#191970" d="M88.5,-124.3693C88.5,-115.681 88.5,-105.6241 88.5,-97.5446"/>
<polygon fill="#191970" stroke="#191970" points="85.0001,-124.3906 88.5,-134.3906 92.0001,-124.3907 85.0001,-124.3906"/>
</g>
<!-- Node3 -->
<g id="node4" class="node">
<title>Node3</title>
<g id="a_node4"><a xlink:href="classrobowflex_1_1Planner.html" target="_top" xlink:title="An abstract interface to a motion planning algorithm. ">
<polygon fill="none" stroke="#000000" points="41,-190.5 41,-209.5 136,-209.5 136,-190.5 41,-190.5"/>
<text text-anchor="middle" x="88.5" y="-197.5" font-family="Roboto" font-size="10.00" fill="#000000">robowflex::Planner</text>
</a>
</g>
</g>
<!-- Node3&#45;&gt;Node2 -->
<g id="edge3" class="edge">
<title>Node3&#45;&gt;Node2</title>
<path fill="none" stroke="#191970" d="M88.5,-180.1575C88.5,-171.155 88.5,-160.9199 88.5,-153.6427"/>
<polygon fill="#191970" stroke="#191970" points="85.0001,-180.2455 88.5,-190.2455 92.0001,-180.2456 85.0001,-180.2455"/>
</g>
</g>
</svg>
