<?xml version="1.0" encoding="UTF-8" standalone="no"?>
<!DOCTYPE svg PUBLIC "-//W3C//DTD SVG 1.1//EN"
 "http://www.w3.org/Graphics/SVG/1.1/DTD/svg11.dtd">
<!-- Generated by graphviz version 2.43.0 (0)
 -->
<!-- Title: robowflex::OMPL::UR5OMPLPipelinePlanner Pages: 1 -->
<svg width="199pt" height="218pt"
 viewBox="0.00 0.00 199.00 218.00" xmlns="http://www.w3.org/2000/svg" xmlns:xlink="http://www.w3.org/1999/xlink">
<g id="graph0" class="graph" transform="scale(1 1) rotate(0) translate(4 214)">
<title>robowflex::OMPL::UR5OMPLPipelinePlanner</title>
<!-- Node1 -->
<g id="node1" class="node">
<title>Node1</title>
<g id="a_node1"><a xlink:title="Convenience class for the default motion planning pipeline for UR5.">
<polygon fill="#bfbfbf" stroke="black" points="0,-0.5 0,-30.5 191,-30.5 191,-0.5 0,-0.5"/>
<text text-anchor="start" x="8" y="-18.5" font-family="Roboto" font-size="10.00">robowflex::OMPL::UR5OMPLPipeline</text>
<text text-anchor="middle" x="95.5" y="-7.5" font-family="Roboto" font-size="10.00">Planner</text>
</a>
</g>
</g>
<!-- Node2 -->
<g id="node2" class="node">
<title>Node2</title>
<g id="a_node2"><a xlink:href="classrobowflex_1_1OMPL_1_1OMPLPipelinePlanner.html" target="_top" xlink:title="A robowflex::PipelinePlanner that uses the MoveIt! default OMPL planning pipeline.">
<polygon fill="none" stroke="black" points="10,-67.5 10,-97.5 181,-97.5 181,-67.5 10,-67.5"/>
<text text-anchor="start" x="18" y="-85.5" font-family="Roboto" font-size="10.00">robowflex::OMPL::OMPLPipeline</text>
<text text-anchor="middle" x="95.5" y="-74.5" font-family="Roboto" font-size="10.00">Planner</text>
</a>
</g>
</g>
<!-- Node2&#45;&gt;Node1 -->
<g id="edge1" class="edge">
<title>Node2&#45;&gt;Node1</title>
<path fill="none" stroke="midnightblue" d="M95.5,-57.11C95.5,-48.15 95.5,-38.32 95.5,-30.58"/>
<polygon fill="midnightblue" stroke="midnightblue" points="92,-57.4 95.5,-67.4 99,-57.4 92,-57.4"/>
</g>
<!-- Node3 -->
<g id="node3" class="node">
<title>Node3</title>
<g id="a_node3"><a xlink:href="classrobowflex_1_1PipelinePlanner.html" target="_top" xlink:title="A motion planner that uses the MoveIt! planning pipeline to load a planner plugin.">
<polygon fill="none" stroke="black" points="22.5,-134.5 22.5,-153.5 168.5,-153.5 168.5,-134.5 22.5,-134.5"/>
<text text-anchor="middle" x="95.5" y="-141.5" font-family="Roboto" font-size="10.00">robowflex::PipelinePlanner</text>
</a>
</g>
</g>
<!-- Node3&#45;&gt;Node2 -->
<g id="edge2" class="edge">
<title>Node3&#45;&gt;Node2</title>
<path fill="none" stroke="midnightblue" d="M95.5,-124.23C95.5,-115.59 95.5,-105.5 95.5,-97.52"/>
<polygon fill="midnightblue" stroke="midnightblue" points="92,-124.48 95.5,-134.48 99,-124.48 92,-124.48"/>
</g>
<!-- Node4 -->
<g id="node4" class="node">
<title>Node4</title>
<g id="a_node4"><a xlink:href="classrobowflex_1_1Planner.html" target="_top" xlink:title="An abstract interface to a motion planning algorithm.">
<polygon fill="none" stroke="black" points="42,-190.5 42,-209.5 149,-209.5 149,-190.5 42,-190.5"/>
<text text-anchor="middle" x="95.5" y="-197.5" font-family="Roboto" font-size="10.00">robowflex::Planner</text>
</a>
</g>
</g>
<!-- Node4&#45;&gt;Node3 -->
<g id="edge3" class="edge">
<title>Node4&#45;&gt;Node3</title>
<path fill="none" stroke="midnightblue" d="M95.5,-179.8C95.5,-170.91 95.5,-160.78 95.5,-153.75"/>
<polygon fill="midnightblue" stroke="midnightblue" points="92,-180.08 95.5,-190.08 99,-180.08 92,-180.08"/>
</g>
</g>
</svg>
