<?xml version="1.0" encoding="UTF-8" standalone="no"?>
<!DOCTYPE svg PUBLIC "-//W3C//DTD SVG 1.1//EN"
 "http://www.w3.org/Graphics/SVG/1.1/DTD/svg11.dtd">
<!-- Generated by graphviz version 2.43.0 (0)
 -->
<!-- Title: robowflex::darts::ImGuiElement Pages: 1 -->
<svg width="377pt" height="225pt"
 viewBox="0.00 0.00 377.00 224.50" xmlns="http://www.w3.org/2000/svg" xmlns:xlink="http://www.w3.org/1999/xlink">
<g id="graph0" class="graph" transform="scale(1 1) rotate(0) translate(4 220.5)">
<title>robowflex::darts::ImGuiElement</title>
<!-- Node1 -->
<g id="node1" class="node">
<title>Node1</title>
<g id="a_node1"><a xlink:title="Abstract GUI element.">
<polygon fill="#bfbfbf" stroke="black" points="0,-93.5 0,-112.5 171,-112.5 171,-93.5 0,-93.5"/>
<text text-anchor="middle" x="85.5" y="-100.5" font-family="Roboto" font-size="10.00">robowflex::darts::ImGuiElement</text>
</a>
</g>
</g>
<!-- Node2 -->
<g id="node2" class="node">
<title>Node2</title>
<g id="a_node2"><a xlink:href="classrobowflex_1_1darts_1_1ButtonElement.html" target="_top" xlink:title="A basic push&#45;button element.">
<polygon fill="none" stroke="black" points="221,-186 221,-216 355,-216 355,-186 221,-186"/>
<text text-anchor="start" x="229" y="-204" font-family="Roboto" font-size="10.00">robowflex::darts::Button</text>
<text text-anchor="middle" x="288" y="-193" font-family="Roboto" font-size="10.00">Element</text>
</a>
</g>
</g>
<!-- Node1&#45;&gt;Node2 -->
<g id="edge1" class="edge">
<title>Node1&#45;&gt;Node2</title>
<path fill="none" stroke="midnightblue" d="M108.06,-118.63C131.46,-135.01 170.41,-160.61 207,-177 214.28,-180.26 222.12,-183.23 229.95,-185.88"/>
<polygon fill="midnightblue" stroke="midnightblue" points="109.78,-115.56 99.6,-112.63 105.73,-121.27 109.78,-115.56"/>
</g>
<!-- Node3 -->
<g id="node3" class="node">
<title>Node3</title>
<g id="a_node3"><a xlink:href="classrobowflex_1_1darts_1_1CheckboxElement.html" target="_top" xlink:title="A checkbox element that modifies a boolean.">
<polygon fill="none" stroke="black" points="213.5,-137 213.5,-167 362.5,-167 362.5,-137 213.5,-137"/>
<text text-anchor="start" x="221.5" y="-155" font-family="Roboto" font-size="10.00">robowflex::darts::Checkbox</text>
<text text-anchor="middle" x="288" y="-144" font-family="Roboto" font-size="10.00">Element</text>
</a>
</g>
</g>
<!-- Node1&#45;&gt;Node3 -->
<g id="edge2" class="edge">
<title>Node1&#45;&gt;Node3</title>
<path fill="none" stroke="midnightblue" d="M135.66,-115.01C162.75,-121.64 196.64,-129.92 225.47,-136.96"/>
<polygon fill="midnightblue" stroke="midnightblue" points="136.18,-111.54 125.63,-112.56 134.52,-118.34 136.18,-111.54"/>
</g>
<!-- Node4 -->
<g id="node4" class="node">
<title>Node4</title>
<g id="a_node4"><a xlink:href="classrobowflex_1_1darts_1_1LinePlotElement.html" target="_top" xlink:title="Line plot element. Displays an updated line graph of data.">
<polygon fill="none" stroke="black" points="218,-88 218,-118 358,-118 358,-88 218,-88"/>
<text text-anchor="start" x="226" y="-106" font-family="Roboto" font-size="10.00">robowflex::darts::LinePlot</text>
<text text-anchor="middle" x="288" y="-95" font-family="Roboto" font-size="10.00">Element</text>
</a>
</g>
</g>
<!-- Node1&#45;&gt;Node4 -->
<g id="edge3" class="edge">
<title>Node1&#45;&gt;Node4</title>
<path fill="none" stroke="midnightblue" d="M181.47,-103C193.69,-103 206.02,-103 217.72,-103"/>
<polygon fill="midnightblue" stroke="midnightblue" points="181.24,-99.5 171.24,-103 181.24,-106.5 181.24,-99.5"/>
</g>
<!-- Node5 -->
<g id="node5" class="node">
<title>Node5</title>
<g id="a_node5"><a xlink:href="classrobowflex_1_1darts_1_1RenderElement.html" target="_top" xlink:title="Generic rendered element. Use callback to display whatever GUI elements needed.">
<polygon fill="none" stroke="black" points="220,-39 220,-69 356,-69 356,-39 220,-39"/>
<text text-anchor="start" x="228" y="-57" font-family="Roboto" font-size="10.00">robowflex::darts::Render</text>
<text text-anchor="middle" x="288" y="-46" font-family="Roboto" font-size="10.00">Element</text>
</a>
</g>
</g>
<!-- Node1&#45;&gt;Node5 -->
<g id="edge4" class="edge">
<title>Node1&#45;&gt;Node5</title>
<path fill="none" stroke="midnightblue" d="M135.66,-90.99C162.75,-84.36 196.64,-76.08 225.47,-69.04"/>
<polygon fill="midnightblue" stroke="midnightblue" points="134.52,-87.66 125.63,-93.44 136.18,-94.46 134.52,-87.66"/>
</g>
<!-- Node6 -->
<g id="node6" class="node">
<title>Node6</title>
<g id="a_node6"><a xlink:href="classrobowflex_1_1darts_1_1TextElement.html" target="_top" xlink:title="A basic text element.">
<polygon fill="none" stroke="black" points="207,-0.5 207,-19.5 369,-19.5 369,-0.5 207,-0.5"/>
<text text-anchor="middle" x="288" y="-7.5" font-family="Roboto" font-size="10.00">robowflex::darts::TextElement</text>
</a>
</g>
</g>
<!-- Node1&#45;&gt;Node6 -->
<g id="edge5" class="edge">
<title>Node1&#45;&gt;Node6</title>
<path fill="none" stroke="midnightblue" d="M107.95,-87.27C131.26,-70.84 170.13,-45.37 207,-30 217.04,-25.81 228.17,-22.35 238.86,-19.55"/>
<polygon fill="midnightblue" stroke="midnightblue" points="105.63,-84.62 99.53,-93.29 109.7,-90.32 105.63,-84.62"/>
</g>
</g>
</svg>
