<?xml version="1.0" encoding="UTF-8" standalone="no"?>
<!DOCTYPE svg PUBLIC "-//W3C//DTD SVG 1.1//EN"
 "http://www.w3.org/Graphics/SVG/1.1/DTD/svg11.dtd">
<!-- Generated by graphviz version 2.40.1 (20161225.0304)
 -->
<!-- Title: Graph Legend Pages: 1 -->
<svg width="500pt" height="159pt"
 viewBox="0.00 0.00 499.50 159.00" xmlns="http://www.w3.org/2000/svg" xmlns:xlink="http://www.w3.org/1999/xlink">
<g id="graph0" class="graph" transform="scale(1 1) rotate(0) translate(4 155)">
<title>Graph Legend</title>
<!-- Node9 -->
<g id="node1" class="node">
<title>Node9</title>
<polygon fill="#bfbfbf" stroke="#000000" points="288.5,-19 234.5,-19 234.5,0 288.5,0 288.5,-19"/>
<text text-anchor="middle" x="261.5" y="-7" font-family="Roboto" font-size="10.00" fill="#000000">Inherited</text>
</g>
<!-- Node10 -->
<g id="node2" class="node">
<title>Node10</title>
<g id="a_node2"><a xlink:href="$classPublicBase.html" xlink:title="PublicBase">
<polygon fill="none" stroke="#000000" points="65,-85 0,-85 0,-66 65,-66 65,-85"/>
<text text-anchor="middle" x="32.5" y="-73" font-family="Roboto" font-size="10.00" fill="#000000">PublicBase</text>
</a>
</g>
</g>
<!-- Node10&#45;&gt;Node9 -->
<g id="edge1" class="edge">
<title>Node10&#45;&gt;Node9</title>
<path fill="none" stroke="#191970" d="M75.1232,-63.2156C121.7729,-49.7707 195.1479,-28.6233 234.4727,-17.2895"/>
<polygon fill="#191970" stroke="#191970" points="73.9497,-59.9113 65.3101,-66.0438 75.8883,-66.6375 73.9497,-59.9113"/>
</g>
<!-- Node11 -->
<g id="node3" class="node">
<title>Node11</title>
<g id="a_node3"><a xlink:href="$classTruncated.html" xlink:title="Truncated">
<polygon fill="none" stroke="#ff0000" points="62.5,-151 2.5,-151 2.5,-132 62.5,-132 62.5,-151"/>
<text text-anchor="middle" x="32.5" y="-139" font-family="Roboto" font-size="10.00" fill="#000000">Truncated</text>
</a>
</g>
</g>
<!-- Node11&#45;&gt;Node10 -->
<g id="edge2" class="edge">
<title>Node11&#45;&gt;Node10</title>
<path fill="none" stroke="#191970" d="M32.5,-121.732C32.5,-109.6966 32.5,-94.847 32.5,-85.2785"/>
<polygon fill="#191970" stroke="#191970" points="29.0001,-121.7614 32.5,-131.7615 36.0001,-121.7615 29.0001,-121.7614"/>
</g>
<!-- Node13 -->
<g id="node4" class="node">
<title>Node13</title>
<g id="a_node4"><a xlink:href="$classProtectedBase.html" xlink:title="ProtectedBase">
<polygon fill="none" stroke="#000000" points="163.5,-85 83.5,-85 83.5,-66 163.5,-66 163.5,-85"/>
<text text-anchor="middle" x="123.5" y="-73" font-family="Roboto" font-size="10.00" fill="#000000">ProtectedBase</text>
</a>
</g>
</g>
<!-- Node13&#45;&gt;Node9 -->
<g id="edge3" class="edge">
<title>Node13&#45;&gt;Node9</title>
<path fill="none" stroke="#006400" d="M152.7949,-61.4894C179.4529,-48.7399 218.0966,-30.2581 241.4094,-19.1085"/>
<polygon fill="#006400" stroke="#006400" points="151.0776,-58.4309 143.5664,-65.903 154.0979,-64.7459 151.0776,-58.4309"/>
</g>
<!-- Node14 -->
<g id="node5" class="node">
<title>Node14</title>
<g id="a_node5"><a xlink:href="$classPrivateBase.html" xlink:title="PrivateBase">
<polygon fill="none" stroke="#000000" points="249.5,-85 181.5,-85 181.5,-66 249.5,-66 249.5,-85"/>
<text text-anchor="middle" x="215.5" y="-73" font-family="Roboto" font-size="10.00" fill="#000000">PrivateBase</text>
</a>
</g>
</g>
<!-- Node14&#45;&gt;Node9 -->
<g id="edge4" class="edge">
<title>Node14&#45;&gt;Node9</title>
<path fill="none" stroke="#8b1a1a" d="M228.0099,-57.5511C236.6003,-45.2256 247.6755,-29.3352 254.6847,-19.2785"/>
<polygon fill="#8b1a1a" stroke="#8b1a1a" points="225.134,-55.5562 222.2875,-65.7615 230.8768,-59.5588 225.134,-55.5562"/>
</g>
<!-- Node15 -->
<g id="node6" class="node">
<title>Node15</title>
<polygon fill="none" stroke="#bfbfbf" points="349,-85 268,-85 268,-66 349,-66 349,-85"/>
<text text-anchor="middle" x="308.5" y="-73" font-family="Roboto" font-size="10.00" fill="#000000">Undocumented</text>
</g>
<!-- Node15&#45;&gt;Node9 -->
<g id="edge5" class="edge">
<title>Node15&#45;&gt;Node9</title>
<path fill="none" stroke="#191970" d="M295.7182,-57.5511C286.941,-45.2256 275.625,-29.3352 268.4635,-19.2785"/>
<polygon fill="#191970" stroke="#191970" points="292.9133,-59.646 301.565,-65.7615 298.6152,-55.5855 292.9133,-59.646"/>
</g>
<!-- Node16 -->
<g id="node7" class="node">
<title>Node16</title>
<g id="a_node7"><a xlink:href="$classTempl.html" xlink:title="Templ&lt; int &gt;">
<polygon fill="none" stroke="#000000" points="435.5,-85 367.5,-85 367.5,-66 435.5,-66 435.5,-85"/>
<text text-anchor="middle" x="401.5" y="-73" font-family="Roboto" font-size="10.00" fill="#000000">Templ&lt; int &gt;</text>
</a>
</g>
</g>
<!-- Node16&#45;&gt;Node9 -->
<g id="edge6" class="edge">
<title>Node16&#45;&gt;Node9</title>
<path fill="none" stroke="#191970" d="M371.7806,-61.4894C344.7362,-48.7399 305.5324,-30.2581 281.8818,-19.1085"/>
<polygon fill="#191970" stroke="#191970" points="370.605,-64.8046 381.1428,-65.903 373.59,-58.4729 370.605,-64.8046"/>
</g>
<!-- Node17 -->
<g id="node8" class="node">
<title>Node17</title>
<g id="a_node8"><a xlink:href="$classTempl.html" xlink:title="Templ&lt; T &gt;">
<polygon fill="none" stroke="#000000" points="433.5,-151 369.5,-151 369.5,-132 433.5,-132 433.5,-151"/>
<text text-anchor="middle" x="401.5" y="-139" font-family="Roboto" font-size="10.00" fill="#000000">Templ&lt; T &gt;</text>
</a>
</g>
</g>
<!-- Node17&#45;&gt;Node16 -->
<g id="edge7" class="edge">
<title>Node17&#45;&gt;Node16</title>
<path fill="none" stroke="#ffa500" stroke-dasharray="5,2" d="M401.5,-121.732C401.5,-109.6966 401.5,-94.847 401.5,-85.2785"/>
<polygon fill="#ffa500" stroke="#ffa500" points="398.0001,-121.7614 401.5,-131.7615 405.0001,-121.7615 398.0001,-121.7614"/>
<text text-anchor="middle" x="414.5" y="-106" font-family="Roboto" font-size="10.00" fill="#000000">&lt; int &gt;</text>
</g>
<!-- Node18 -->
<g id="node9" class="node">
<title>Node18</title>
<g id="a_node9"><a xlink:href="$classUsed.html" xlink:title="Used">
<polygon fill="none" stroke="#000000" points="491.5,-85 453.5,-85 453.5,-66 491.5,-66 491.5,-85"/>
<text text-anchor="middle" x="472.5" y="-73" font-family="Roboto" font-size="10.00" fill="#000000">Used</text>
</a>
</g>
</g>
<!-- Node18&#45;&gt;Node9 -->
<g id="edge8" class="edge">
<title>Node18&#45;&gt;Node9</title>
<path fill="none" stroke="#9a32cd" stroke-dasharray="5,2" d="M443.4984,-65.7333C382.778,-46.1355 322.5094,-27.8161 288.5496,-17.5962"/>
<polygon fill="#9a32cd" stroke="#9a32cd" points="442.6517,-69.138 453.2436,-68.8886 444.808,-62.4784 442.6517,-69.138"/>
<text text-anchor="middle" x="412.5" y="-40" font-family="Roboto" font-size="10.00" fill="#000000">m_usedClass</text>
</g>
</g>
</svg>
