<?xml version="1.0" encoding="UTF-8" standalone="no"?>
<!DOCTYPE svg PUBLIC "-//W3C//DTD SVG 1.1//EN"
 "http://www.w3.org/Graphics/SVG/1.1/DTD/svg11.dtd">
<!-- Generated by graphviz version 2.43.0 (0)
 -->
<!-- Title: Graphical Class Hierarchy Pages: 1 -->
<svg width="273pt" height="180pt"
 viewBox="0.00 0.00 273.00 180.00" xmlns="http://www.w3.org/2000/svg" xmlns:xlink="http://www.w3.org/1999/xlink">
<g id="graph0" class="graph" transform="scale(1 1) rotate(0) translate(4 176)">
<title>Graphical Class Hierarchy</title>
<!-- Node0 -->
<g id="node1" class="node">
<title>Node0</title>
<g id="a_node1"><a xlink:href="classrobowflex_1_1Robot.html" target="_top" xlink:title="Loads information about a robot and maintains information about a robot&#39;s state.">
<polygon fill="none" stroke="black" points="0,-76.5 0,-95.5 99,-95.5 99,-76.5 0,-76.5"/>
<text text-anchor="middle" x="49.5" y="-83.5" font-family="Roboto" font-size="10.00">robowflex::Robot</text>
</a>
</g>
</g>
<!-- Node1 -->
<g id="node2" class="node">
<title>Node1</title>
<g id="a_node2"><a xlink:href="classrobowflex_1_1Cob4Robot.html" target="_top" xlink:title="Convenience class that describes the default setup for Care&#45;O&#45;Bot4. Will first attempt to load config...">
<polygon fill="none" stroke="black" points="138,-152.5 138,-171.5 262,-171.5 262,-152.5 138,-152.5"/>
<text text-anchor="middle" x="200" y="-159.5" font-family="Roboto" font-size="10.00">robowflex::Cob4Robot</text>
</a>
</g>
</g>
<!-- Node0&#45;&gt;Node1 -->
<g id="edge1" class="edge">
<title>Node0&#45;&gt;Node1</title>
<path fill="none" stroke="midnightblue" d="M70.4,-101.99C86.89,-114.6 111.37,-131.85 135,-143 142.76,-146.66 151.38,-149.79 159.71,-152.4"/>
<polygon fill="midnightblue" stroke="midnightblue" points="72.15,-98.92 62.11,-95.54 67.85,-104.45 72.15,-98.92"/>
</g>
<!-- Node2 -->
<g id="node3" class="node">
<title>Node2</title>
<g id="a_node3"><a xlink:href="classrobowflex_1_1FetchRobot.html" target="_top" xlink:title="Convenience class that describes the default setup for Fetch. Will first attempt to load configuratio...">
<polygon fill="none" stroke="black" points="137.5,-114.5 137.5,-133.5 262.5,-133.5 262.5,-114.5 137.5,-114.5"/>
<text text-anchor="middle" x="200" y="-121.5" font-family="Roboto" font-size="10.00">robowflex::FetchRobot</text>
</a>
</g>
</g>
<!-- Node0&#45;&gt;Node2 -->
<g id="edge2" class="edge">
<title>Node0&#45;&gt;Node2</title>
<path fill="none" stroke="midnightblue" d="M97.83,-98.11C118.51,-103.4 142.42,-109.52 161.8,-114.48"/>
<polygon fill="midnightblue" stroke="midnightblue" points="98.53,-94.68 87.97,-95.59 96.79,-101.46 98.53,-94.68"/>
</g>
<!-- Node3 -->
<g id="node4" class="node">
<title>Node3</title>
<g id="a_node4"><a xlink:href="classrobowflex_1_1ParamRobot.html" target="_top" xlink:title="Loads information about a robot from the parameter server.">
<polygon fill="none" stroke="black" points="135,-76.5 135,-95.5 265,-95.5 265,-76.5 135,-76.5"/>
<text text-anchor="middle" x="200" y="-83.5" font-family="Roboto" font-size="10.00">robowflex::ParamRobot</text>
</a>
</g>
</g>
<!-- Node0&#45;&gt;Node3 -->
<g id="edge3" class="edge">
<title>Node0&#45;&gt;Node3</title>
<path fill="none" stroke="midnightblue" d="M109.23,-86C117.65,-86 126.35,-86 134.87,-86"/>
<polygon fill="midnightblue" stroke="midnightblue" points="109.12,-82.5 99.12,-86 109.12,-89.5 109.12,-82.5"/>
</g>
<!-- Node4 -->
<g id="node5" class="node">
<title>Node4</title>
<g id="a_node5"><a xlink:href="classrobowflex_1_1R2Robot.html" target="_top" xlink:title="Convenience class that describes the default setup for R2 (R2C6 full).">
<polygon fill="none" stroke="black" points="144,-38.5 144,-57.5 256,-57.5 256,-38.5 144,-38.5"/>
<text text-anchor="middle" x="200" y="-45.5" font-family="Roboto" font-size="10.00">robowflex::R2Robot</text>
</a>
</g>
</g>
<!-- Node0&#45;&gt;Node4 -->
<g id="edge4" class="edge">
<title>Node0&#45;&gt;Node4</title>
<path fill="none" stroke="midnightblue" d="M97.83,-73.89C118.51,-68.6 142.42,-62.48 161.8,-57.52"/>
<polygon fill="midnightblue" stroke="midnightblue" points="96.79,-70.54 87.97,-76.41 98.53,-77.32 96.79,-70.54"/>
</g>
<!-- Node5 -->
<g id="node6" class="node">
<title>Node5</title>
<g id="a_node6"><a xlink:href="classrobowflex_1_1UR5Robot.html" target="_top" xlink:title="Convenience class that describes the default setup for UR5 (with robotiq gripper and load cell) Will ...">
<polygon fill="none" stroke="black" points="140.5,-0.5 140.5,-19.5 259.5,-19.5 259.5,-0.5 140.5,-0.5"/>
<text text-anchor="middle" x="200" y="-7.5" font-family="Roboto" font-size="10.00">robowflex::UR5Robot</text>
</a>
</g>
</g>
<!-- Node0&#45;&gt;Node5 -->
<g id="edge5" class="edge">
<title>Node0&#45;&gt;Node5</title>
<path fill="none" stroke="midnightblue" d="M70.4,-70.01C86.89,-57.4 111.37,-40.15 135,-29 142.76,-25.34 151.38,-22.21 159.71,-19.6"/>
<polygon fill="midnightblue" stroke="midnightblue" points="67.85,-67.55 62.11,-76.46 72.15,-73.08 67.85,-67.55"/>
</g>
</g>
</svg>
