<?xml version="1.0" encoding="UTF-8" standalone="no"?>
<!DOCTYPE svg PUBLIC "-//W3C//DTD SVG 1.1//EN"
 "http://www.w3.org/Graphics/SVG/1.1/DTD/svg11.dtd">
<!-- Generated by graphviz version 2.43.0 (0)
 -->
<!-- Title: Graphical Class Hierarchy Pages: 1 -->
<svg width="310pt" height="104pt"
 viewBox="0.00 0.00 310.00 104.00" xmlns="http://www.w3.org/2000/svg" xmlns:xlink="http://www.w3.org/1999/xlink">
<g id="graph0" class="graph" transform="scale(1 1) rotate(0) translate(4 100)">
<title>Graphical Class Hierarchy</title>
<!-- Node0 -->
<g id="node1" class="node">
<title>Node0</title>
<g id="a_node1"><a xlink:href="classrobowflex_1_1darts_1_1Joint.html" target="_top" xlink:title="Abstract controllable joint for robowflex::darts::StateSpace.">
<polygon fill="none" stroke="black" points="0,-38.5 0,-57.5 123,-57.5 123,-38.5 0,-38.5"/>
<text text-anchor="middle" x="61.5" y="-45.5" font-family="Roboto" font-size="10.00">robowflex::darts::Joint</text>
</a>
</g>
</g>
<!-- Node1 -->
<g id="node2" class="node">
<title>Node1</title>
<g id="a_node2"><a xlink:href="classrobowflex_1_1darts_1_1RnJoint.html" target="_top" xlink:title="A real vector joint of n dimensions.">
<polygon fill="none" stroke="black" points="162.5,-76.5 162.5,-95.5 298.5,-95.5 298.5,-76.5 162.5,-76.5"/>
<text text-anchor="middle" x="230.5" y="-83.5" font-family="Roboto" font-size="10.00">robowflex::darts::RnJoint</text>
</a>
</g>
</g>
<!-- Node0&#45;&gt;Node1 -->
<g id="edge1" class="edge">
<title>Node0&#45;&gt;Node1</title>
<path fill="none" stroke="midnightblue" d="M114.46,-59.82C138.01,-65.18 165.47,-71.43 187.66,-76.48"/>
<polygon fill="midnightblue" stroke="midnightblue" points="115.17,-56.4 104.64,-57.59 113.62,-63.22 115.17,-56.4"/>
</g>
<!-- Node2 -->
<g id="node3" class="node">
<title>Node2</title>
<g id="a_node3"><a xlink:href="classrobowflex_1_1darts_1_1SO2Joint.html" target="_top" xlink:title="A SO(2) joint. Bounds are from &#45;pi to pi, and wraps.">
<polygon fill="none" stroke="black" points="159,-38.5 159,-57.5 302,-57.5 302,-38.5 159,-38.5"/>
<text text-anchor="middle" x="230.5" y="-45.5" font-family="Roboto" font-size="10.00">robowflex::darts::SO2Joint</text>
</a>
</g>
</g>
<!-- Node0&#45;&gt;Node2 -->
<g id="edge2" class="edge">
<title>Node0&#45;&gt;Node2</title>
<path fill="none" stroke="midnightblue" d="M133.43,-48C141.85,-48 150.44,-48 158.86,-48"/>
<polygon fill="midnightblue" stroke="midnightblue" points="133.26,-44.5 123.26,-48 133.26,-51.5 133.26,-44.5"/>
</g>
<!-- Node3 -->
<g id="node4" class="node">
<title>Node3</title>
<g id="a_node4"><a xlink:href="classrobowflex_1_1darts_1_1SO3Joint.html" target="_top" xlink:title="A SO(3) joint modeled with quaternions.">
<polygon fill="none" stroke="black" points="159,-0.5 159,-19.5 302,-19.5 302,-0.5 159,-0.5"/>
<text text-anchor="middle" x="230.5" y="-7.5" font-family="Roboto" font-size="10.00">robowflex::darts::SO3Joint</text>
</a>
</g>
</g>
<!-- Node0&#45;&gt;Node3 -->
<g id="edge3" class="edge">
<title>Node0&#45;&gt;Node3</title>
<path fill="none" stroke="midnightblue" d="M114.46,-36.18C138.01,-30.82 165.47,-24.57 187.66,-19.52"/>
<polygon fill="midnightblue" stroke="midnightblue" points="113.62,-32.78 104.64,-38.41 115.17,-39.6 113.62,-32.78"/>
</g>
</g>
</svg>
