<?xml version="1.0" encoding="UTF-8" standalone="no"?>
<!DOCTYPE svg PUBLIC "-//W3C//DTD SVG 1.1//EN"
 "http://www.w3.org/Graphics/SVG/1.1/DTD/svg11.dtd">
<!-- Generated by graphviz version 2.43.0 (0)
 -->
<!-- Title: Graphical Class Hierarchy Pages: 1 -->
<svg width="387pt" height="127pt"
 viewBox="0.00 0.00 387.00 126.50" xmlns="http://www.w3.org/2000/svg" xmlns:xlink="http://www.w3.org/1999/xlink">
<g id="graph0" class="graph" transform="scale(1 1) rotate(0) translate(4 122.5)">
<title>Graphical Class Hierarchy</title>
<!-- Node15 -->
<g id="node1" class="node">
<title>Node15</title>
<g id="a_node1"><a xlink:title=" ">
<polygon fill="none" stroke="#bfbfbf" points="0,-99 0,-118 164,-118 164,-99 0,-99"/>
<text text-anchor="middle" x="82" y="-106" font-family="Roboto" font-size="10.00">ompl::base::GoalLazySamples</text>
</a>
</g>
</g>
<!-- Node0 -->
<g id="node2" class="node">
<title>Node0</title>
<g id="a_node2"><a xlink:href="classrobowflex_1_1darts_1_1TSRGoal.html" target="_top" xlink:title="A sampleable goal region for OMPL for a set of TSRs. Samples goals in a separate thread using a clone...">
<polygon fill="none" stroke="black" points="218,-96 218,-115 361,-115 361,-96 218,-96"/>
<text text-anchor="middle" x="289.5" y="-103" font-family="Roboto" font-size="10.00">robowflex::darts::TSRGoal</text>
</a>
</g>
</g>
<!-- Node15&#45;&gt;Node0 -->
<g id="edge1" class="edge">
<title>Node15&#45;&gt;Node0</title>
<path fill="none" stroke="midnightblue" d="M174.27,-107.17C188.88,-106.95 203.81,-106.74 217.84,-106.53"/>
<polygon fill="midnightblue" stroke="midnightblue" points="174.17,-103.67 164.22,-107.31 174.27,-110.67 174.17,-103.67"/>
</g>
<!-- Node17 -->
<g id="node3" class="node">
<title>Node17</title>
<g id="a_node3"><a xlink:title=" ">
<polygon fill="none" stroke="#bfbfbf" points="3.5,-0.5 3.5,-30.5 160.5,-30.5 160.5,-0.5 3.5,-0.5"/>
<text text-anchor="start" x="11.5" y="-18.5" font-family="Roboto" font-size="10.00">ompl::base::GoalSampleable</text>
<text text-anchor="middle" x="82" y="-7.5" font-family="Roboto" font-size="10.00">Region</text>
</a>
</g>
</g>
<!-- Node18 -->
<g id="node4" class="node">
<title>Node18</title>
<g id="a_node4"><a xlink:href="classrobowflex_1_1darts_1_1JointRegionGoal.html" target="_top" xlink:title="A joint space goal volume.">
<polygon fill="none" stroke="black" points="200,-12 200,-31 379,-31 379,-12 200,-12"/>
<text text-anchor="middle" x="289.5" y="-19" font-family="Roboto" font-size="10.00">robowflex::darts::JointRegionGoal</text>
</a>
</g>
</g>
<!-- Node17&#45;&gt;Node18 -->
<g id="edge2" class="edge">
<title>Node17&#45;&gt;Node18</title>
<path fill="none" stroke="midnightblue" d="M170.93,-18.07C180.45,-18.35 190.14,-18.63 199.67,-18.91"/>
<polygon fill="midnightblue" stroke="midnightblue" points="170.79,-14.56 160.69,-17.77 170.58,-21.56 170.79,-14.56"/>
</g>
<!-- Node32 -->
<g id="node5" class="node">
<title>Node32</title>
<g id="a_node5"><a xlink:href="classrobowflex_1_1darts_1_1ConstraintExtractor.html" target="_top" xlink:title="Helper class to manage extracting states from a possibly constrained state space.">
<polygon fill="none" stroke="black" points="6,-49.5 6,-79.5 158,-79.5 158,-49.5 6,-49.5"/>
<text text-anchor="start" x="14" y="-67.5" font-family="Roboto" font-size="10.00">robowflex::darts::Constraint</text>
<text text-anchor="middle" x="82" y="-56.5" font-family="Roboto" font-size="10.00">Extractor</text>
</a>
</g>
</g>
<!-- Node32&#45;&gt;Node0 -->
<g id="edge5" class="edge">
<title>Node32&#45;&gt;Node0</title>
<path fill="none" stroke="midnightblue" d="M167.88,-81.44C192.77,-86.4 219.09,-91.65 240.78,-95.98"/>
<polygon fill="midnightblue" stroke="midnightblue" points="168.55,-78 158.06,-79.48 167.18,-84.86 168.55,-78"/>
</g>
<!-- Node32&#45;&gt;Node18 -->
<g id="edge3" class="edge">
<title>Node32&#45;&gt;Node18</title>
<path fill="none" stroke="midnightblue" d="M164.95,-47.35C191.54,-41.79 220.06,-35.82 242.99,-31.02"/>
<polygon fill="midnightblue" stroke="midnightblue" points="163.95,-43.99 154.87,-49.46 165.38,-50.84 163.95,-43.99"/>
</g>
<!-- Node33 -->
<g id="node6" class="node">
<title>Node33</title>
<g id="a_node6"><a xlink:href="classrobowflex_1_1darts_1_1PlanBuilder.html" target="_top" xlink:title="A helper class to setup common OMPL structures for planning.">
<polygon fill="none" stroke="black" points="211,-55 211,-74 368,-74 368,-55 211,-55"/>
<text text-anchor="middle" x="289.5" y="-62" font-family="Roboto" font-size="10.00">robowflex::darts::PlanBuilder</text>
</a>
</g>
</g>
<!-- Node32&#45;&gt;Node33 -->
<g id="edge4" class="edge">
<title>Node32&#45;&gt;Node33</title>
<path fill="none" stroke="midnightblue" d="M168.25,-64.5C182.38,-64.5 196.96,-64.5 210.88,-64.5"/>
<polygon fill="midnightblue" stroke="midnightblue" points="168.06,-61 158.06,-64.5 168.06,-68 168.06,-61"/>
</g>
</g>
</svg>
