<?xml version="1.0" encoding="UTF-8" standalone="no"?>
<!DOCTYPE svg PUBLIC "-//W3C//DTD SVG 1.1//EN"
 "http://www.w3.org/Graphics/SVG/1.1/DTD/svg11.dtd">
<!-- Generated by graphviz version 2.43.0 (0)
 -->
<!-- Title: Graphical Class Hierarchy Pages: 1 -->
<svg width="269pt" height="78pt"
 viewBox="0.00 0.00 269.00 77.50" xmlns="http://www.w3.org/2000/svg" xmlns:xlink="http://www.w3.org/1999/xlink">
<g id="graph0" class="graph" transform="scale(1 1) rotate(0) translate(4 73.5)">
<title>Graphical Class Hierarchy</title>
<!-- Node0 -->
<g id="node1" class="node">
<title>Node0</title>
<g id="a_node1"><a xlink:href="classrobowflex_1_1ID.html" target="_top" xlink:title="Adds functionality to uniquely ID a specific class as well as the &quot;version&quot; of that class,...">
<polygon fill="none" stroke="black" points="0,-22.5 0,-41.5 81,-41.5 81,-22.5 0,-22.5"/>
<text text-anchor="middle" x="40.5" y="-29.5" font-family="Roboto" font-size="10.00">robowflex::ID</text>
</a>
</g>
</g>
<!-- Node1 -->
<g id="node2" class="node">
<title>Node1</title>
<g id="a_node2"><a xlink:href="classrobowflex_1_1MotionRequestBuilder.html" target="_top" xlink:title="A helper class to build motion planning requests for a robowflex::Planner.">
<polygon fill="none" stroke="black" points="117,-39 117,-69 261,-69 261,-39 117,-39"/>
<text text-anchor="start" x="125" y="-57" font-family="Roboto" font-size="10.00">robowflex::MotionRequest</text>
<text text-anchor="middle" x="189" y="-46" font-family="Roboto" font-size="10.00">Builder</text>
</a>
</g>
</g>
<!-- Node0&#45;&gt;Node1 -->
<g id="edge1" class="edge">
<title>Node0&#45;&gt;Node1</title>
<path fill="none" stroke="midnightblue" d="M91.07,-39.44C99.42,-40.7 108.23,-42.02 116.99,-43.34"/>
<polygon fill="midnightblue" stroke="midnightblue" points="91.55,-35.98 81.15,-37.95 90.51,-42.9 91.55,-35.98"/>
</g>
<!-- Node2 -->
<g id="node3" class="node">
<title>Node2</title>
<g id="a_node3"><a xlink:href="classrobowflex_1_1Scene.html" target="_top" xlink:title="Wrapper class around the planning scene and collision geometry.">
<polygon fill="none" stroke="black" points="139,-0.5 139,-19.5 239,-19.5 239,-0.5 139,-0.5"/>
<text text-anchor="middle" x="189" y="-7.5" font-family="Roboto" font-size="10.00">robowflex::Scene</text>
</a>
</g>
</g>
<!-- Node0&#45;&gt;Node2 -->
<g id="edge2" class="edge">
<title>Node0&#45;&gt;Node2</title>
<path fill="none" stroke="midnightblue" d="M91.47,-24.5C106.8,-22.19 123.64,-19.67 138.9,-17.37"/>
<polygon fill="midnightblue" stroke="midnightblue" points="90.51,-21.1 81.15,-26.05 91.55,-28.02 90.51,-21.1"/>
</g>
</g>
</svg>
