<?xml version="1.0" encoding="UTF-8" standalone="no"?>
<!DOCTYPE svg PUBLIC "-//W3C//DTD SVG 1.1//EN"
 "http://www.w3.org/Graphics/SVG/1.1/DTD/svg11.dtd">
<!-- Generated by graphviz version 2.40.1 (20161225.0304)
 -->
<!-- Title: Graphical Class Hierarchy Pages: 1 -->
<svg width="246pt" height="142pt"
 viewBox="0.00 0.00 246.00 142.00" xmlns="http://www.w3.org/2000/svg" xmlns:xlink="http://www.w3.org/1999/xlink">
<g id="graph0" class="graph" transform="scale(1 1) rotate(0) translate(4 138)">
<title>Graphical Class Hierarchy</title>
<!-- Node0 -->
<g id="node1" class="node">
<title>Node0</title>
<g id="a_node1"><a xlink:href="classrobowflex_1_1Robot.html" target="_top" xlink:title="Loads information about a robot and maintains information about a robot&#39;s state. ">
<polygon fill="none" stroke="#000000" points="0,-57.5 0,-76.5 87,-76.5 87,-57.5 0,-57.5"/>
<text text-anchor="middle" x="43.5" y="-64.5" font-family="Roboto" font-size="10.00" fill="#000000">robowflex::Robot</text>
</a>
</g>
</g>
<!-- Node1 -->
<g id="node2" class="node">
<title>Node1</title>
<g id="a_node2"><a xlink:href="classrobowflex_1_1FetchRobot.html" target="_top" xlink:title="Convenience class that describes the default setup for Fetch (with robotiq gripper and load cell) ...">
<polygon fill="none" stroke="#000000" points="125,-114.5 125,-133.5 236,-133.5 236,-114.5 125,-114.5"/>
<text text-anchor="middle" x="180.5" y="-121.5" font-family="Roboto" font-size="10.00" fill="#000000">robowflex::FetchRobot</text>
</a>
</g>
</g>
<!-- Node0&#45;&gt;Node1 -->
<g id="edge1" class="edge">
<title>Node0&#45;&gt;Node1</title>
<path fill="none" stroke="#191970" d="M71.1248,-81.2673C86.2407,-88.8025 105.4206,-97.9273 123,-105 131.3882,-108.3748 140.6297,-111.6264 149.2045,-114.4567"/>
<polygon fill="#191970" stroke="#191970" points="72.3408,-77.9607 61.836,-76.5827 69.1886,-84.2108 72.3408,-77.9607"/>
</g>
<!-- Node2 -->
<g id="node3" class="node">
<title>Node2</title>
<g id="a_node3"><a xlink:href="classrobowflex_1_1ParamRobot.html" target="_top" xlink:title="Loads information about a robot from the parameter server. ">
<polygon fill="none" stroke="#000000" points="123,-76.5 123,-95.5 238,-95.5 238,-76.5 123,-76.5"/>
<text text-anchor="middle" x="180.5" y="-83.5" font-family="Roboto" font-size="10.00" fill="#000000">robowflex::ParamRobot</text>
</a>
</g>
</g>
<!-- Node0&#45;&gt;Node2 -->
<g id="edge2" class="edge">
<title>Node0&#45;&gt;Node2</title>
<path fill="none" stroke="#191970" d="M97.227,-74.4512C105.5818,-75.6099 114.2444,-76.8113 122.6851,-77.9819"/>
<polygon fill="#191970" stroke="#191970" points="97.6104,-70.9709 87.2243,-73.064 96.6487,-77.9046 97.6104,-70.9709"/>
</g>
<!-- Node3 -->
<g id="node4" class="node">
<title>Node3</title>
<g id="a_node4"><a xlink:href="classrobowflex_1_1R2Robot.html" target="_top" xlink:title="Convenience class that describes the default setup for R2 (R2C6 full). ">
<polygon fill="none" stroke="#000000" points="131.5,-38.5 131.5,-57.5 229.5,-57.5 229.5,-38.5 131.5,-38.5"/>
<text text-anchor="middle" x="180.5" y="-45.5" font-family="Roboto" font-size="10.00" fill="#000000">robowflex::R2Robot</text>
</a>
</g>
</g>
<!-- Node0&#45;&gt;Node3 -->
<g id="edge3" class="edge">
<title>Node0&#45;&gt;Node3</title>
<path fill="none" stroke="#191970" d="M97.3648,-59.5297C108.6161,-57.9693 120.42,-56.3323 131.4842,-54.7978"/>
<polygon fill="#191970" stroke="#191970" points="96.6487,-56.0954 87.2243,-60.936 97.6104,-63.0291 96.6487,-56.0954"/>
</g>
<!-- Node4 -->
<g id="node5" class="node">
<title>Node4</title>
<g id="a_node5"><a xlink:href="classrobowflex_1_1UR5Robot.html" target="_top" xlink:title="Convenience class that describes the default setup for UR5 (with robotiq gripper and load cell) ...">
<polygon fill="none" stroke="#000000" points="128.5,-.5 128.5,-19.5 232.5,-19.5 232.5,-.5 128.5,-.5"/>
<text text-anchor="middle" x="180.5" y="-7.5" font-family="Roboto" font-size="10.00" fill="#000000">robowflex::UR5Robot</text>
</a>
</g>
</g>
<!-- Node0&#45;&gt;Node4 -->
<g id="edge4" class="edge">
<title>Node0&#45;&gt;Node4</title>
<path fill="none" stroke="#191970" d="M71.1248,-52.7327C86.2407,-45.1975 105.4206,-36.0727 123,-29 131.3882,-25.6252 140.6297,-22.3736 149.2045,-19.5433"/>
<polygon fill="#191970" stroke="#191970" points="69.1886,-49.7892 61.836,-57.4173 72.3408,-56.0393 69.1886,-49.7892"/>
</g>
</g>
</svg>
