<?xml version="1.0" encoding="UTF-8" standalone="no"?>
<!DOCTYPE svg PUBLIC "-//W3C//DTD SVG 1.1//EN"
 "http://www.w3.org/Graphics/SVG/1.1/DTD/svg11.dtd">
<!-- Generated by graphviz version 2.40.1 (20161225.0304)
 -->
<!-- Title: Graphical Class Hierarchy Pages: 1 -->
<svg width="349pt" height="137pt"
 viewBox="0.00 0.00 349.00 137.00" xmlns="http://www.w3.org/2000/svg" xmlns:xlink="http://www.w3.org/1999/xlink">
<g id="graph0" class="graph" transform="scale(1 1) rotate(0) translate(4 133)">
<title>Graphical Class Hierarchy</title>
<!-- Node0 -->
<g id="node1" class="node">
<title>Node0</title>
<g id="a_node1"><a xlink:href="classrobowflex_1_1BenchmarkOutputter.html" target="_top" xlink:title="An abstract class for outputting benchmark results. ">
<polygon fill="none" stroke="#000000" points="0,-55 0,-74 151,-74 151,-55 0,-55"/>
<text text-anchor="middle" x="75.5" y="-62" font-family="Roboto" font-size="10.00" fill="#000000">robowflex::BenchmarkOutputter</text>
</a>
</g>
</g>
<!-- Node1 -->
<g id="node2" class="node">
<title>Node1</title>
<g id="a_node2"><a xlink:href="classrobowflex_1_1JSONBenchmarkOutputter.html" target="_top" xlink:title="A benchmark outputter for storing data in a single JSON file. ">
<polygon fill="none" stroke="#000000" points="196,-98.5 196,-128.5 332,-128.5 332,-98.5 196,-98.5"/>
<text text-anchor="start" x="204" y="-116.5" font-family="Roboto" font-size="10.00" fill="#000000">robowflex::JSONBenchmark</text>
<text text-anchor="middle" x="264" y="-105.5" font-family="Roboto" font-size="10.00" fill="#000000">Outputter</text>
</a>
</g>
</g>
<!-- Node0&#45;&gt;Node1 -->
<g id="edge1" class="edge">
<title>Node0&#45;&gt;Node1</title>
<path fill="none" stroke="#191970" d="M122.0548,-76.6018C147.4684,-83.208 179.164,-91.4471 206.1537,-98.463"/>
<polygon fill="#191970" stroke="#191970" points="122.8511,-73.1925 112.2922,-74.064 121.09,-79.9674 122.8511,-73.1925"/>
</g>
<!-- Node2 -->
<g id="node3" class="node">
<title>Node2</title>
<g id="a_node3"><a xlink:href="classrobowflex_1_1OMPLBenchmarkOutputter.html" target="_top" xlink:title="Benchmark outputter that saves results into OMPL benchmarking log files. If ompl_benchmark_statistics...">
<polygon fill="none" stroke="#000000" points="195.5,-49.5 195.5,-79.5 332.5,-79.5 332.5,-49.5 195.5,-49.5"/>
<text text-anchor="start" x="203.5" y="-67.5" font-family="Roboto" font-size="10.00" fill="#000000">robowflex::OMPLBenchmark</text>
<text text-anchor="middle" x="264" y="-56.5" font-family="Roboto" font-size="10.00" fill="#000000">Outputter</text>
</a>
</g>
</g>
<!-- Node0&#45;&gt;Node2 -->
<g id="edge2" class="edge">
<title>Node0&#45;&gt;Node2</title>
<path fill="none" stroke="#191970" d="M161.1185,-64.5C172.6073,-64.5 184.2686,-64.5 195.4119,-64.5"/>
<polygon fill="#191970" stroke="#191970" points="161.0841,-61.0001 151.084,-64.5 161.084,-68.0001 161.0841,-61.0001"/>
</g>
<!-- Node3 -->
<g id="node4" class="node">
<title>Node3</title>
<g id="a_node4"><a xlink:href="classrobowflex_1_1TrajectoryBenchmarkOutputter.html" target="_top" xlink:title="Benchmark outputter that saves each trajectory from each run to a rosbag file. ">
<polygon fill="none" stroke="#000000" points="187,-.5 187,-30.5 341,-30.5 341,-.5 187,-.5"/>
<text text-anchor="start" x="195" y="-18.5" font-family="Roboto" font-size="10.00" fill="#000000">robowflex::TrajectoryBenchmark</text>
<text text-anchor="middle" x="264" y="-7.5" font-family="Roboto" font-size="10.00" fill="#000000">Outputter</text>
</a>
</g>
</g>
<!-- Node0&#45;&gt;Node3 -->
<g id="edge3" class="edge">
<title>Node0&#45;&gt;Node3</title>
<path fill="none" stroke="#191970" d="M122.0548,-52.3982C147.4684,-45.792 179.164,-37.5529 206.1537,-30.537"/>
<polygon fill="#191970" stroke="#191970" points="121.09,-49.0326 112.2922,-54.936 122.8511,-55.8075 121.09,-49.0326"/>
</g>
</g>
</svg>
