<?xml version="1.0" encoding="UTF-8" standalone="no"?>
<!DOCTYPE svg PUBLIC "-//W3C//DTD SVG 1.1//EN"
 "http://www.w3.org/Graphics/SVG/1.1/DTD/svg11.dtd">
<!-- Generated by graphviz version 2.43.0 (0)
 -->
<!-- Title: robowflex::IO::GNUPlotHelper::PlottingOptions Pages: 1 -->
<svg width="366pt" height="88pt"
 viewBox="0.00 0.00 366.00 88.00" xmlns="http://www.w3.org/2000/svg" xmlns:xlink="http://www.w3.org/1999/xlink">
<g id="graph0" class="graph" transform="scale(1 1) rotate(0) translate(4 84)">
<title>robowflex::IO::GNUPlotHelper::PlottingOptions</title>
<!-- Node1 -->
<g id="node1" class="node">
<title>Node1</title>
<g id="a_node1"><a xlink:title=" ">
<polygon fill="#bfbfbf" stroke="black" points="0,-24.5 0,-54.5 161,-54.5 161,-24.5 0,-24.5"/>
<text text-anchor="start" x="8" y="-42.5" font-family="Roboto" font-size="10.00">robowflex::IO::GNUPlotHelper</text>
<text text-anchor="middle" x="80.5" y="-31.5" font-family="Roboto" font-size="10.00">::PlottingOptions</text>
</a>
</g>
</g>
<!-- Node2 -->
<g id="node2" class="node">
<title>Node2</title>
<g id="a_node2"><a xlink:href="structrobowflex_1_1IO_1_1GNUPlotHelper_1_1BoxPlotOptions.html" target="_top" xlink:title="Box plotting options.">
<polygon fill="none" stroke="black" points="197,-49.5 197,-79.5 358,-79.5 358,-49.5 197,-49.5"/>
<text text-anchor="start" x="205" y="-67.5" font-family="Roboto" font-size="10.00">robowflex::IO::GNUPlotHelper</text>
<text text-anchor="middle" x="277.5" y="-56.5" font-family="Roboto" font-size="10.00">::BoxPlotOptions</text>
</a>
</g>
</g>
<!-- Node1&#45;&gt;Node2 -->
<g id="edge1" class="edge">
<title>Node1&#45;&gt;Node2</title>
<path fill="none" stroke="midnightblue" d="M171.12,-50.99C179.7,-52.09 188.36,-53.2 196.84,-54.29"/>
<polygon fill="midnightblue" stroke="midnightblue" points="171.46,-47.5 161.1,-49.7 170.57,-54.45 171.46,-47.5"/>
</g>
<!-- Node3 -->
<g id="node3" class="node">
<title>Node3</title>
<g id="a_node3"><a xlink:href="structrobowflex_1_1IO_1_1GNUPlotHelper_1_1TimeSeriesOptions.html" target="_top" xlink:title="Time series plotting options.">
<polygon fill="none" stroke="black" points="197,-0.5 197,-30.5 358,-30.5 358,-0.5 197,-0.5"/>
<text text-anchor="start" x="205" y="-18.5" font-family="Roboto" font-size="10.00">robowflex::IO::GNUPlotHelper</text>
<text text-anchor="middle" x="277.5" y="-7.5" font-family="Roboto" font-size="10.00">::TimeSeriesOptions</text>
</a>
</g>
</g>
<!-- Node1&#45;&gt;Node3 -->
<g id="edge2" class="edge">
<title>Node1&#45;&gt;Node3</title>
<path fill="none" stroke="midnightblue" d="M171.12,-28.47C179.7,-27.41 188.36,-26.35 196.84,-25.3"/>
<polygon fill="midnightblue" stroke="midnightblue" points="170.59,-25.01 161.1,-29.7 171.45,-31.96 170.59,-25.01"/>
</g>
</g>
</svg>
